<svg width="15" height="20" viewBox="0 0 15 20" fill="none" xmlns="http://www.w3.org/2000/svg">
<g clip-path="url(#clip0)">
<path d="M7.49248 20.0004C6.84551 19.1476 6.21717 18.321 5.59038 17.4927C4.21517 15.6761 2.81563 13.8767 1.47044 12.0376C-1.77686 7.59651 0.630403 1.28816 5.98477 0.158967C10.1042 -0.709964 14.1895 2.0872 14.8856 6.27434C15.2443 8.43049 14.7603 10.402 13.4524 12.1456C11.513 14.731 9.55297 17.3008 7.60118 19.8768C7.5753 19.9102 7.54528 19.9404 7.49248 20.0004ZM11.3976 7.61789C11.3904 5.43149 9.64665 3.68476 7.47799 3.69154C5.33159 3.69832 3.59096 5.46799 3.59976 7.63458C3.60856 9.80847 5.34246 11.5589 7.49455 11.5677C9.6451 11.5761 11.4049 9.79543 11.3976 7.61789Z" fill="#BB1E6A"/>
</g>
<defs>
<clipPath id="clip0">
<rect width="15" height="20" fill="white"/>
</clipPath>
</defs>
</svg>
