<svg width="30" height="31" viewBox="0 0 30 31" fill="none" xmlns="http://www.w3.org/2000/svg">
<path d="M30.001 9.50652C28.9468 12.7272 27.2299 15.6527 25.9024 18.7517C25.7786 19.0401 25.6312 19.3195 25.5086 19.6078C25.1216 20.5169 24.4342 20.9349 23.452 20.9326C20.5324 20.9236 17.614 20.9292 14.6945 20.9292C14.5674 20.9292 14.4414 20.9292 14.2883 20.9292C14.357 21.5601 14.6787 22.0264 15.0748 22.4556C15.6002 23.0256 16.2561 23.2678 17.0256 23.2656C19.9452 23.2588 22.8636 23.2622 25.7831 23.2633C26.421 23.2633 26.8148 23.5168 27.0072 24.0361C27.2412 24.6647 26.8598 25.3766 26.205 25.5253C26.0914 25.5512 25.9721 25.5693 25.8551 25.5693C22.7983 25.5693 19.7415 25.5794 16.6847 25.5603C15.2604 25.5512 14.1263 24.8956 13.2015 23.8423C12.6199 23.18 12.2621 22.4117 12.0157 21.5646C10.3022 15.673 8.56853 9.78589 6.83818 3.89881C6.75268 3.60818 6.64692 3.32092 6.52991 3.04155C6.33978 2.58644 5.98313 2.35664 5.49373 2.35213C4.10878 2.33748 2.7227 2.32847 1.33775 2.32171C0.940602 2.31946 0.583957 2.24399 0.300441 1.93195C-0.278966 1.29435 0.0191753 0.280498 0.856222 0.0585779C0.901224 0.0461864 0.942852 0.0191505 0.986729 0C2.55957 0 4.1324 0 5.70412 0C6.06414 0.0912464 6.43541 0.150951 6.7808 0.278245C7.90587 0.693923 8.52915 1.57935 8.87567 2.67206C9.29419 3.99119 9.66884 5.32383 10.0637 6.64972C10.1042 6.78716 10.1549 6.92121 10.1897 7.0271C10.552 7.00908 10.8749 6.97866 11.1978 6.97866C16.5812 6.97528 21.9658 6.97641 27.3492 6.97641C27.5157 6.97641 27.6833 6.97528 27.8499 6.98542C28.9918 7.05414 29.785 7.63766 29.9526 8.74952C29.9582 8.78669 29.983 8.82161 29.9998 8.85653C30.001 9.07395 30.001 9.29024 30.001 9.50652ZM22.229 11.4216C22.2662 11.4385 22.283 11.452 22.301 11.452C23.7051 11.4554 25.1092 11.461 26.5144 11.4509C26.5977 11.4509 26.7147 11.3461 26.7563 11.2605C26.9802 10.8133 27.1872 10.357 27.3942 9.90192C27.4662 9.74421 27.5225 9.57862 27.5956 9.39049C25.7854 9.39049 24.0145 9.39049 22.2302 9.39049C22.229 10.0765 22.229 10.7423 22.229 11.4216ZM16.0581 9.39387C14.4279 9.39387 12.8179 9.39387 11.1708 9.39387C11.3621 10.0134 11.5511 10.6004 11.7198 11.1929C11.7772 11.3957 11.8672 11.4689 12.0855 11.4666C13.3219 11.4554 14.5572 11.461 15.7937 11.4599C15.8781 11.4599 15.9636 11.4486 16.0569 11.4407C16.0581 10.7479 16.0581 10.0754 16.0581 9.39387ZM12.2914 12.984C12.5006 13.6509 12.702 14.2919 12.8989 14.9182C13.9711 14.9182 15.0151 14.9182 16.0524 14.9182C16.0524 14.2581 16.0524 13.625 16.0524 12.984C14.7935 12.984 13.5604 12.984 12.2914 12.984ZM20.6978 9.39275C19.6493 9.39275 18.6266 9.39275 17.5915 9.39275C17.5915 10.0867 17.5915 10.7592 17.5915 11.4407C18.6356 11.4407 19.6605 11.4407 20.6978 11.4407C20.6978 10.7547 20.6978 10.0889 20.6978 9.39275ZM20.6978 16.4796C19.6493 16.4796 18.6266 16.4796 17.5904 16.4796C17.5904 17.1735 17.5904 17.846 17.5904 18.5287C18.6345 18.5287 19.6594 18.5287 20.6978 18.5287C20.6978 17.8426 20.6978 17.1769 20.6978 16.4796ZM22.2257 14.9441C23.1448 14.9441 24.0359 14.9453 24.9269 14.9396C24.9832 14.9396 25.0676 14.8957 25.0901 14.8495C25.3803 14.2412 25.6605 13.6295 25.9552 12.9942C24.6884 12.9942 23.4621 12.9942 22.2257 12.9942C22.2257 13.6464 22.2257 14.2727 22.2257 14.9441ZM17.5848 14.9227C18.6412 14.9227 19.6661 14.9227 20.6888 14.9227C20.6888 14.266 20.6888 13.6318 20.6888 12.9942C19.6436 12.9942 18.621 12.9942 17.5848 12.9942C17.5848 13.6475 17.5848 14.2727 17.5848 14.9227ZM13.3838 16.4683C13.5953 17.1386 13.7911 17.7739 14.0015 18.4047C14.0217 18.4667 14.1286 18.5388 14.1961 18.5399C14.8115 18.5501 15.4258 18.5456 16.0513 18.5456C16.0513 17.837 16.0513 17.1577 16.0513 16.4683C15.1659 16.4683 14.3052 16.4683 13.3838 16.4683ZM22.2268 18.5456C22.5868 18.5456 22.9187 18.5568 23.2495 18.5365C23.3249 18.532 23.4216 18.4295 23.4621 18.3484C23.695 17.873 23.9144 17.3898 24.1371 16.9099C24.2001 16.7736 24.2609 16.635 24.3295 16.4807C23.6005 16.4807 22.9198 16.4807 22.2268 16.4807C22.2268 17.1701 22.2268 17.8359 22.2268 18.5456Z" fill="black"/>
<path d="M16.2489 30.0011C15.0923 30.0079 14.1461 29.0717 14.1416 27.9148C14.136 26.7602 15.0777 25.8105 16.2309 25.8071C17.3897 25.8038 18.328 26.7354 18.3347 27.8968C18.3426 29.0548 17.4111 29.9943 16.2489 30.0011Z" fill="black"/>
<path d="M23.215 30.0011C22.0584 30.0056 21.1122 29.0672 21.1055 27.9126C21.0999 26.7658 22.0517 25.8094 23.2015 25.8071C24.3547 25.8049 25.3031 26.7444 25.311 27.899C25.32 29.0458 24.3704 29.9977 23.215 30.0011Z" fill="black"/>
</svg>
