<svg width="88" height="88" viewBox="0 0 88 88" fill="none" xmlns="http://www.w3.org/2000/svg">
<circle cx="44" cy="44" r="44" fill="white"/>
<circle cx="44" cy="44" r="44" stroke="#C4C4C4"/>
<path fill-rule="evenodd" clip-rule="evenodd" d="M55 23C55 22.4477 54.5523 22 54 22H15C14.4477 22 14 22.4477 14 23V47C14 47.5523 14.4477 48 15 48H20.2064C20.7587 48 21.2064 48.4477 21.2064 49V54.4161C21.2064 55.307 22.2836 55.7532 22.9136 55.1232L29.7439 48.2929C29.9314 48.1054 30.1858 48 30.451 48H54C54.5523 48 55 47.5523 55 47V23Z" fill="white"/>
<path d="M29.7439 48.2929L28.6832 47.2322L29.7439 48.2929ZM22.9136 55.1232L23.9742 56.1839L22.9136 55.1232ZM15 23.5H54V20.5H15V23.5ZM15.5 47V23H12.5V47H15.5ZM20.2064 46.5H15V49.5H20.2064V46.5ZM22.7064 54.4161V49H19.7064V54.4161H22.7064ZM28.6832 47.2322L21.8529 54.0625L23.9742 56.1839L30.8045 49.3536L28.6832 47.2322ZM54 46.5H30.451V49.5H54V46.5ZM53.5 23V47H56.5V23H53.5ZM54 49.5C55.3807 49.5 56.5 48.3807 56.5 47H53.5C53.5 46.7239 53.7239 46.5 54 46.5V49.5ZM30.8045 49.3536C30.7108 49.4473 30.5836 49.5 30.451 49.5V46.5C29.7879 46.5 29.152 46.7634 28.6832 47.2322L30.8045 49.3536ZM19.7064 54.4161C19.7064 56.6434 22.3993 57.7588 23.9742 56.1839L21.8529 54.0625C22.1679 53.7476 22.7064 53.9706 22.7064 54.4161H19.7064ZM20.2064 49.5C19.9303 49.5 19.7064 49.2761 19.7064 49H22.7064C22.7064 47.6193 21.5872 46.5 20.2064 46.5V49.5ZM12.5 47C12.5 48.3807 13.6193 49.5 15 49.5V46.5C15.2761 46.5 15.5 46.7239 15.5 47H12.5ZM54 23.5C53.7239 23.5 53.5 23.2761 53.5 23H56.5C56.5 21.6193 55.3807 20.5 54 20.5V23.5ZM15 20.5C13.6193 20.5 12.5 21.6193 12.5 23H15.5C15.5 23.2761 15.2761 23.5 15 23.5V20.5Z" fill="#FFA9B8"/>
<path fill-rule="evenodd" clip-rule="evenodd" d="M34.4177 36.2113C34.4177 35.659 34.8654 35.2113 35.4177 35.2113H73.6528C74.2051 35.2113 74.6528 35.659 74.6528 36.2113V60.6344C74.6528 61.1867 74.2051 61.6344 73.6528 61.6344H68.4464C67.8942 61.6344 67.4464 62.0821 67.4464 62.6344V68.2281C67.4464 69.119 66.3693 69.5652 65.7393 68.9352L58.7314 61.9273C58.5439 61.7397 58.2895 61.6344 58.0243 61.6344H35.4177C34.8654 61.6344 34.4177 61.1867 34.4177 60.6344V36.2113Z" fill="white"/>
<path d="M58.7314 61.9273L59.7921 60.8666L58.7314 61.9273ZM65.7393 68.9352L64.6787 69.9959L65.7393 68.9352ZM73.6528 36.7113H35.4177V33.7113H73.6528V36.7113ZM73.1528 60.6344V36.2113H76.1528V60.6344H73.1528ZM68.4464 60.1344H73.6528V63.1344H68.4464V60.1344ZM65.9464 68.2281V62.6344H68.9464V68.2281H65.9464ZM59.7921 60.8666L66.8 67.8745L64.6787 69.9959L57.6707 62.9879L59.7921 60.8666ZM35.4177 60.1344H58.0243V63.1344H35.4177V60.1344ZM35.9177 36.2113V60.6344H32.9177V36.2113H35.9177ZM35.4177 63.1344C34.037 63.1344 32.9177 62.0151 32.9177 60.6344H35.9177C35.9177 60.3582 35.6938 60.1344 35.4177 60.1344V63.1344ZM57.6707 62.9879C57.7645 63.0817 57.8917 63.1344 58.0243 63.1344V60.1344C58.6873 60.1344 59.3232 60.3978 59.7921 60.8666L57.6707 62.9879ZM68.9464 68.2281C68.9464 70.4554 66.2536 71.5708 64.6787 69.9959L66.8 67.8745C66.485 67.5596 65.9464 67.7827 65.9464 68.2281H68.9464ZM68.4464 63.1344C68.7226 63.1344 68.9464 62.9105 68.9464 62.6344H65.9464C65.9464 61.2537 67.0657 60.1344 68.4464 60.1344V63.1344ZM76.1528 60.6344C76.1528 62.0151 75.0335 63.1344 73.6528 63.1344V60.1344C73.3767 60.1344 73.1528 60.3582 73.1528 60.6344H76.1528ZM35.4177 36.7113C35.6938 36.7113 35.9177 36.4874 35.9177 36.2113H32.9177C32.9177 34.8306 34.037 33.7113 35.4177 33.7113V36.7113ZM73.6528 33.7113C75.0335 33.7113 76.1528 34.8306 76.1528 36.2113H73.1528C73.1528 36.4874 73.3767 36.7113 73.6528 36.7113V33.7113Z" fill="#FFA9B8"/>
</svg>
