<svg width="104" height="36" viewBox="0 0 104 36" fill="none" xmlns="http://www.w3.org/2000/svg">
<path d="M23.4853 34.5978C23.4575 34.5978 23.3327 34.5978 23.114 34.5978L22.8279 34.6095V34.5367C22.9937 34.5367 23.1082 34.493 23.1683 34.4042C23.2168 34.3314 23.2417 34.2091 23.2417 34.0359V32.5669C23.2417 32.3849 23.1845 32.2393 23.0686 32.1286C22.9526 32.018 22.8044 31.9627 22.6224 31.9627C22.3113 31.9627 22.0281 32.0937 21.7727 32.3558V34.0359C21.7727 34.1727 21.7903 34.2834 21.827 34.3678C21.8754 34.4843 21.9694 34.5425 22.1073 34.5425H22.1983V34.6095L21.5408 34.5978C21.5085 34.5978 21.3838 34.5978 21.1695 34.5978L20.8834 34.6095L20.8775 34.5367C21.0345 34.5367 21.1402 34.5076 21.1959 34.4493C21.2502 34.3911 21.2825 34.2848 21.2913 34.132V34.0359V32.5363C21.2913 32.2946 21.2238 32.1738 21.0873 32.1738C21.0272 32.1738 20.9494 32.1854 20.8525 32.2102V32.1374C21.2268 31.9889 21.5335 31.852 21.7727 31.7268V32.2888C22.0735 31.9306 22.4302 31.7516 22.8455 31.7516C23.1096 31.7516 23.321 31.8244 23.4824 31.9685C23.6424 32.1126 23.7231 32.3135 23.7231 32.5712V34.0315C23.7231 34.196 23.7378 34.3081 23.7656 34.3693C23.8141 34.4697 23.9095 34.525 24.0518 34.5323L24.1428 34.5381V34.6109C24.0856 34.6109 23.9623 34.6066 23.7715 34.5993H23.4853V34.5978Z" fill="black"/>
<path d="M27.6097 33.027C27.4761 33.059 27.3411 33.1013 27.2075 33.1537C26.9272 33.2658 26.7453 33.3546 26.6587 33.4201C26.4752 33.5526 26.3842 33.7288 26.3842 33.9457C26.3842 34.3242 26.553 34.5135 26.8906 34.5135C27.118 34.5135 27.3572 34.3839 27.6097 34.1262V33.027ZM27.7447 34.7188C27.6918 34.6416 27.6493 34.5339 27.617 34.3926C27.6082 34.3606 27.5964 34.3038 27.5803 34.2238C27.2677 34.5339 26.9404 34.6896 26.6 34.6896C26.2712 34.6896 26.0496 34.547 25.9366 34.2602C25.8955 34.1597 25.875 34.0622 25.875 33.969C25.875 33.771 25.9953 33.6006 26.2346 33.4536C26.3652 33.3764 26.5794 33.2905 26.8803 33.193L27.6111 32.9629V32.484C27.6111 32.2991 27.573 32.1476 27.4952 32.0297C27.4057 31.8929 27.2721 31.8244 27.0931 31.8244C26.9625 31.8244 26.8407 31.8608 26.7277 31.9336C26.597 32.0137 26.5325 32.1185 26.5325 32.2437C26.5325 32.3209 26.5501 32.4184 26.5868 32.5364L26.148 32.6761C26.1362 32.6441 26.126 32.5931 26.1171 32.5247C26.1171 32.3034 26.2712 32.1112 26.5794 31.9511C26.848 31.8099 27.1092 31.74 27.366 31.74C27.5774 31.74 27.7461 31.8026 27.8753 31.9278C28.003 32.053 28.0675 32.2204 28.0675 32.4301V34.0068C28.0675 34.2325 28.1512 34.3446 28.317 34.3446C28.3654 34.3446 28.4344 34.3242 28.5239 34.2849L28.5416 34.333L27.7447 34.7188Z" fill="black"/>
<path d="M31.6858 34.5805L31.6065 34.6838L31.4965 34.6897C31.3791 34.6984 31.2543 34.6737 31.1252 34.6169C30.7392 34.4567 30.547 34.1772 30.547 33.7812V31.9395H29.9688V31.8434H30.2432C30.3899 31.839 30.5382 31.7458 30.6879 31.5639C30.8214 31.3935 30.9006 31.229 30.9256 31.0718L30.9564 30.8708H31.0239V31.8434H31.9617L31.9309 31.9395H31.0225V33.8074C31.0225 33.8918 31.0283 33.9544 31.0401 33.9952C31.0606 34.1248 31.1208 34.2325 31.2191 34.3184C31.3189 34.4058 31.4334 34.448 31.564 34.448C31.6535 34.448 31.7342 34.4276 31.8076 34.3868C31.8355 34.3708 31.9074 34.3228 32.0204 34.2413C31.8751 34.3665 31.7636 34.4786 31.6858 34.5805Z" fill="black"/>
<path d="M36.0183 34.7129C35.9244 34.6124 35.8789 34.4552 35.8789 34.2411L35.7513 34.3314C35.6338 34.4159 35.4856 34.509 35.3066 34.6095C35.1686 34.6663 35.0057 34.6939 34.8194 34.6939C34.5508 34.6939 34.3365 34.6168 34.1766 34.461C34.0166 34.3052 33.9359 34.0956 33.9359 33.8291V32.5363C33.9359 32.2946 33.8654 32.1738 33.7231 32.1738C33.6658 32.1738 33.5895 32.1854 33.4912 32.2102V32.1374C33.7833 32.0282 34.09 31.8913 34.4114 31.7268V33.8364C34.4114 34.0504 34.4657 34.2208 34.5757 34.3503C34.6858 34.4799 34.8458 34.544 35.0571 34.544C35.3785 34.544 35.6485 34.4071 35.8672 34.1334V32.4708C35.8672 32.2728 35.7967 32.1752 35.6544 32.1752C35.5972 32.1752 35.5208 32.1869 35.4225 32.2116V32.1374L35.8863 31.9539C36.0169 31.9001 36.168 31.8244 36.3427 31.7268V33.8539C36.3427 34.1815 36.4263 34.3445 36.5922 34.3445C36.6494 34.3445 36.7184 34.3241 36.7991 34.2848L36.8108 34.327L36.0183 34.7129Z" fill="black"/>
<path d="M40.1333 32.0529C39.9807 32.0529 39.8325 32.1141 39.6887 32.2378C39.5448 32.3601 39.4729 32.4984 39.4729 32.6513V34.1101C39.4729 34.3911 39.6123 34.5323 39.8926 34.5323V34.611C39.8398 34.611 39.7165 34.6066 39.5213 34.5993H39.2293C39.2014 34.5993 39.0767 34.5993 38.858 34.5993L38.5718 34.611V34.5323C38.8521 34.5323 38.9916 34.3634 38.9916 34.0242V32.5378C38.9916 32.2961 38.924 32.1752 38.7876 32.1752C38.7274 32.1752 38.6496 32.1869 38.5528 32.2116L38.541 32.133C38.88 32.0122 39.1911 31.8768 39.4729 31.7283V32.5261L39.5757 32.3019C39.7987 31.935 40.0526 31.7516 40.3388 31.7516C40.4327 31.7516 40.5178 31.7661 40.6 31.7938V32.3616C40.512 32.1563 40.3549 32.0529 40.1333 32.0529Z" fill="black"/>
<path d="M44.2749 32.9424C44.2749 32.6571 44.2206 32.411 44.1106 32.2057C43.9726 31.9524 43.7715 31.8243 43.5074 31.8243C43.2887 31.8243 43.095 31.9451 42.9292 32.1868C42.7795 32.3965 42.6958 32.6178 42.6797 32.8522L42.6679 33.021H44.2764V32.9424H44.2749ZM44.7798 33.1229H42.6665V33.2074L42.6723 33.2744C42.7046 33.6485 42.8147 33.9572 43.0011 34.1989C43.2168 34.4813 43.503 34.6225 43.8596 34.6225C44.0915 34.6225 44.3556 34.5366 44.6521 34.3634L44.677 34.4172C44.3894 34.6021 44.0665 34.6953 43.7084 34.6953C43.2491 34.6953 42.8763 34.5556 42.5872 34.2746C42.2996 33.995 42.1543 33.6267 42.1543 33.171C42.1543 32.8405 42.2394 32.5522 42.4097 32.3062C42.5931 32.0398 42.8396 31.8738 43.1522 31.8039C43.299 31.7719 43.4428 31.7559 43.5852 31.7559C43.9711 31.7559 44.2691 31.8811 44.4804 32.13C44.68 32.3644 44.7783 32.676 44.7783 33.0662V33.1229H44.7798Z" fill="black"/>
<path d="M49.928 34.5805L49.8487 34.6838L49.7387 34.6897C49.6213 34.6984 49.4965 34.6737 49.3674 34.6169C48.9814 34.4567 48.7892 34.1772 48.7892 33.7812V31.9395H48.2109V31.8434H48.4854C48.6321 31.839 48.7803 31.7458 48.93 31.5639C49.0636 31.3935 49.1428 31.229 49.1678 31.0718L49.1986 30.8708H49.2661V31.8434H50.2039L50.1731 31.9395H49.2646V33.8074C49.2646 33.8918 49.2705 33.9544 49.2823 33.9952C49.3028 34.1248 49.363 34.2325 49.4613 34.3184C49.5611 34.4058 49.6756 34.448 49.8062 34.448C49.8957 34.448 49.9764 34.4276 50.0498 34.3868C50.0777 34.3708 50.1496 34.3228 50.2626 34.2413C50.1173 34.3665 50.0058 34.4786 49.928 34.5805Z" fill="black"/>
<path d="M53.133 31.8301C52.841 31.8301 52.6047 31.951 52.4256 32.1912C52.2627 32.4081 52.182 32.6673 52.182 32.9701C52.182 33.3603 52.2715 33.7141 52.4506 34.0315C52.6692 34.4173 52.9628 34.6109 53.3282 34.6109C53.6496 34.6109 53.8888 34.4682 54.0473 34.1829C54.1735 33.9572 54.2366 33.6719 54.2366 33.3268C54.2366 32.8041 54.0781 32.3936 53.7611 32.0966C53.5747 31.919 53.3649 31.8301 53.133 31.8301ZM53.2196 34.6939C52.7852 34.6939 52.4256 34.5556 52.1409 34.2804C51.8562 34.0038 51.7139 33.6515 51.7139 33.2191C51.7139 32.7721 51.8562 32.4169 52.1409 32.1548C52.4256 31.8927 52.7955 31.7617 53.2504 31.7617C53.6775 31.7617 54.0311 31.8913 54.3129 32.149C54.5947 32.4067 54.737 32.7474 54.737 33.171C54.737 33.6107 54.5947 33.9732 54.31 34.2615C54.0253 34.5498 53.6613 34.6939 53.2196 34.6939Z" fill="black"/>
<path d="M59.9728 31.903C59.7058 31.903 59.4489 32.0296 59.2024 32.2844V34.4115C59.3653 34.5411 59.5693 34.6051 59.8173 34.6051C60.1827 34.6051 60.4645 34.4406 60.6641 34.1101C60.8343 33.832 60.9194 33.5015 60.9194 33.1186C60.9194 32.7882 60.846 32.513 60.7008 32.2902C60.5305 32.0311 60.2884 31.903 59.9728 31.903ZM59.9185 34.6765C59.6925 34.6765 59.4519 34.6182 59.2024 34.5017V35.4364C59.2024 35.6141 59.2273 35.7378 59.2758 35.8062C59.333 35.8994 59.446 35.946 59.6162 35.946V35.9999L58.9588 35.9751C58.9265 35.9751 58.8017 35.9795 58.5875 35.9868L58.3013 35.9984V35.9387C58.4642 35.9387 58.5757 35.8965 58.6359 35.8121C58.6799 35.748 58.7063 35.6286 58.7151 35.4554V35.3229V32.5363C58.7151 32.2946 58.6491 32.1738 58.5156 32.1738C58.4818 32.1738 58.4055 32.184 58.2881 32.2043V32.1374C58.5787 32.0282 58.8824 31.8913 59.2024 31.7268V32.216C59.4533 31.9059 59.7674 31.7501 60.1475 31.7501C60.5437 31.7501 60.8519 31.8782 61.075 32.1345C61.2981 32.3907 61.4081 32.7183 61.4081 33.1172C61.4081 33.5569 61.2702 33.9238 60.9943 34.2178C60.714 34.5236 60.3559 34.6765 59.9185 34.6765Z" fill="black"/>
<path d="M65.3628 32.9424C65.3628 32.6571 65.3085 32.411 65.1985 32.2057C65.0605 31.9524 64.8594 31.8243 64.5953 31.8243C64.3766 31.8243 64.1829 31.9451 64.0171 32.1868C63.8674 32.3965 63.7837 32.6178 63.7676 32.8522L63.7558 33.021H65.3643V32.9424H65.3628ZM65.8677 33.1229H63.7544V33.2074L63.7602 33.2744C63.7925 33.6485 63.9026 33.9572 64.089 34.1989C64.3047 34.4813 64.5909 34.6225 64.9475 34.6225C65.1794 34.6225 65.4435 34.5366 65.74 34.3634L65.7649 34.4172C65.4773 34.6021 65.1544 34.6953 64.7963 34.6953C64.337 34.6953 63.9642 34.5556 63.6751 34.2746C63.3875 33.995 63.2422 33.6267 63.2422 33.171C63.2422 32.8405 63.3273 32.5522 63.4975 32.3062C63.681 32.0398 63.9275 31.8738 64.2401 31.8039C64.3869 31.7719 64.5307 31.7559 64.6731 31.7559C65.059 31.7559 65.3569 31.8811 65.5683 32.13C65.7679 32.3644 65.8662 32.676 65.8662 33.0662V33.1229H65.8677Z" fill="black"/>
<path d="M69.1032 31.8301C68.8112 31.8301 68.5749 31.951 68.3958 32.1912C68.2329 32.4081 68.1522 32.6673 68.1522 32.9701C68.1522 33.3603 68.2418 33.7141 68.4208 34.0315C68.6395 34.4173 68.933 34.6109 69.2984 34.6109C69.6198 34.6109 69.859 34.4682 70.0175 34.1829C70.1437 33.9572 70.2068 33.6719 70.2068 33.3268C70.2068 32.8041 70.0483 32.3936 69.7313 32.0966C69.5435 31.919 69.3351 31.8301 69.1032 31.8301ZM69.1883 34.6939C68.7539 34.6939 68.3944 34.5556 68.1097 34.2804C67.825 34.0038 67.6826 33.6515 67.6826 33.2191C67.6826 32.7721 67.825 32.4169 68.1097 32.1548C68.3944 31.8927 68.7642 31.7617 69.2191 31.7617C69.6462 31.7617 69.9999 31.8913 70.2816 32.149C70.5634 32.4067 70.7058 32.7474 70.7058 33.171C70.7058 33.6107 70.5634 33.9732 70.2787 34.2615C69.9955 34.5498 69.6315 34.6939 69.1883 34.6939Z" fill="black"/>
<path d="M74.176 31.903C73.9089 31.903 73.652 32.0296 73.4055 32.2844V34.4115C73.5684 34.5411 73.7724 34.6051 74.0204 34.6051C74.3858 34.6051 74.6676 34.4406 74.8672 34.1101C75.0374 33.832 75.1225 33.5015 75.1225 33.1186C75.1225 32.7882 75.0492 32.513 74.9039 32.2902C74.7336 32.0311 74.4915 31.903 74.176 31.903ZM74.1217 34.6765C73.8957 34.6765 73.655 34.6182 73.4055 34.5017V35.4364C73.4055 35.6141 73.4304 35.7378 73.4789 35.8062C73.5361 35.8994 73.6491 35.946 73.8193 35.946V35.9999L73.1619 35.9751C73.1296 35.9751 73.0049 35.9795 72.7906 35.9868L72.5044 35.9984V35.9387C72.6673 35.9387 72.7789 35.8965 72.839 35.8121C72.883 35.748 72.9095 35.6286 72.9183 35.4554V35.3229V32.5363C72.9183 32.2946 72.8522 32.1738 72.7187 32.1738C72.6849 32.1738 72.6086 32.184 72.4912 32.2043V32.1374C72.7818 32.0282 73.0856 31.8913 73.4055 31.7268V32.216C73.6564 31.9059 73.9705 31.7501 74.3506 31.7501C74.7468 31.7501 75.055 31.8782 75.2781 32.1345C75.5012 32.3907 75.6112 32.7183 75.6112 33.1172C75.6112 33.5569 75.4733 33.9238 75.1974 34.2178C74.9171 34.5236 74.559 34.6765 74.1217 34.6765Z" fill="black"/>
<path d="M77.829 33.9224V30.5549C77.829 30.3176 77.7541 30.1982 77.603 30.1982C77.5677 30.1982 77.5002 30.2084 77.4004 30.2288L77.377 30.156C77.6793 30.0468 77.9919 29.9143 78.3147 29.7571V34.0898C78.3147 34.3883 78.4527 34.5368 78.7286 34.5368V34.6038L77.9919 34.5863C77.8216 34.5819 77.6264 34.5877 77.4078 34.6038L77.4136 34.531C77.6734 34.531 77.8114 34.3999 77.8275 34.1393V33.9224H77.829Z" fill="black"/>
<path d="M82.6416 32.9424C82.6416 32.6571 82.5873 32.411 82.4773 32.2057C82.3393 31.9524 82.1383 31.8243 81.8741 31.8243C81.6554 31.8243 81.4617 31.9451 81.2959 32.1868C81.1462 32.3965 81.0625 32.6178 81.0464 32.8522L81.0346 33.021H82.6431V32.9424H82.6416ZM83.1479 33.1229H81.0346V33.2074L81.0405 33.2744C81.0728 33.6485 81.1829 33.9572 81.3692 34.1989C81.585 34.4813 81.8712 34.6225 82.2278 34.6225C82.4596 34.6225 82.7238 34.5366 83.0203 34.3634L83.0452 34.4172C82.7576 34.6021 82.4347 34.6953 82.0766 34.6953C81.6173 34.6953 81.2445 34.5556 80.9554 34.2746C80.6678 33.995 80.5225 33.6267 80.5225 33.171C80.5225 32.8405 80.6076 32.5522 80.7778 32.3062C80.9613 32.0398 81.2078 31.8738 81.5204 31.8039C81.6672 31.7719 81.811 31.7559 81.9533 31.7559C82.3393 31.7559 82.6372 31.8811 82.8486 32.13C83.0481 32.3644 83.1465 32.676 83.1465 33.0662V33.1229H83.1479Z" fill="black"/>
<path fill-rule="evenodd" clip-rule="evenodd" d="M44.8264 1.16026C41.4628 3.50571 40.3416 8.04375 35.9859 6.06955C40.6586 5.75653 40.8684 2.80979 43.9268 1.23888C41.3835 0.203733 37.3419 0.901108 36.2192 4.19581C37.1702 3.39797 38.6686 1.78921 42.5796 1.64944C38.9078 2.46038 36.7108 4.3545 35.4003 5.93124C34.6108 0.656518 39.6592 -1.5448 44.8264 1.16026Z" fill="#75B051"/>
<path d="M5.83648 3.31504C5.38154 3.31504 4.81066 3.37765 4.13411 3.50431V11.0473C4.87816 11.2992 5.60754 11.4244 6.32078 11.4244C8.7129 11.4244 9.90896 10.2145 9.90896 7.79484C9.90896 6.44377 9.57582 5.37514 8.91542 4.58895C8.20512 3.74016 7.1793 3.31504 5.83648 3.31504ZM13.8758 20.2864C11.8637 20.2864 10.1056 18.848 8.60136 15.9726L7.17636 13.2632C6.94302 12.8075 6.72435 12.5018 6.5233 12.3445C6.3017 12.1087 5.97737 11.9514 5.5371 11.8728L4.13558 11.637V17.1766C4.13558 18.1667 4.22657 18.8116 4.41295 19.1101C4.67858 19.5337 5.24065 19.7463 6.10798 19.7463V19.9589L3.0672 19.8875C2.87641 19.8875 2.29086 19.8992 1.30906 19.9225L0 19.9574V19.6983C0.87173 19.6983 1.44114 19.4784 1.71117 19.0387C1.91663 18.7083 2.01936 18.0764 2.01936 17.149V5.65321C2.01936 4.91507 1.94745 4.38367 1.8051 4.07065C1.5835 3.56837 1.13149 3.3165 0.45054 3.3165H0V3.01076H2.92191C3.28586 3.01076 3.83326 2.99183 4.56117 2.95252C5.29055 2.91321 5.83648 2.89429 6.20044 2.89429C10.0968 2.89429 12.0457 4.33999 12.0457 7.22704C12.0457 8.31168 11.7522 9.22307 11.1667 9.96122C10.5811 10.6964 9.75633 11.1827 8.69528 11.4186L8.17283 11.5365C8.76279 12.212 9.34835 13.0535 9.92363 14.0581L11.5071 16.8665C12.6592 18.8975 13.8244 19.9108 14.9926 19.9108C15.1041 19.9108 15.1907 19.9108 15.2538 19.9108V20.1307C14.8267 20.2355 14.3674 20.2864 13.8758 20.2864Z" fill="black"/>
<path d="M17.441 19.9093C17.3148 19.9093 16.8305 19.9093 15.9911 19.9093L14.8742 19.9559V19.6502C15.4451 19.6502 15.856 19.5323 16.1099 19.2964C16.3007 19.1232 16.4181 18.7068 16.4665 18.0473L16.49 17.6935V11.9427C16.49 10.9993 16.2215 10.529 15.6829 10.529C15.5405 10.529 15.2309 10.5683 14.7568 10.6469L14.7803 10.3645C16.2053 9.81415 17.394 9.28857 18.345 8.78483V16.9801C18.345 17.8638 18.3846 18.4374 18.4639 18.7053C18.6385 19.3066 19.0421 19.6284 19.6761 19.6764L20.0327 19.6997L20.0092 19.9589L17.441 19.9093ZM17.441 6.59225C17.0448 6.59225 16.7204 6.45103 16.4665 6.16858C16.2127 5.88614 16.0864 5.54837 16.0864 5.15528C16.0864 4.79421 16.2215 4.471 16.49 4.18856C16.7601 3.90611 17.0756 3.76489 17.441 3.76489C17.8211 3.76489 18.1425 3.90175 18.4037 4.17691C18.6649 4.45208 18.7956 4.7782 18.7956 5.15528C18.7956 5.54837 18.6693 5.88614 18.4155 6.16858C18.1616 6.44957 17.8372 6.59225 17.441 6.59225Z" fill="black"/>
<path d="M21.3135 19.9806L28.7511 9.44426H25.4006C24.4188 9.44426 23.7379 9.54617 23.3578 9.75C22.803 10.0485 22.4464 10.6454 22.2879 11.5407C22.2556 11.73 22.2483 11.8785 22.2645 11.9892H22.0737V9.11377H31.0434L23.6058 19.6501H27.0237C29.6654 19.6501 30.9832 18.8013 30.9832 17.1037H31.1491V19.9791H21.3135V19.9806Z" fill="black"/>
<path d="M66.3751 19.8861C66.0111 19.87 65.5078 19.8788 64.862 19.9093C64.1488 19.9559 63.6542 19.9807 63.3695 19.9807V19.7215C64.209 19.7215 64.7637 19.5177 65.0323 19.1086C65.2377 18.7941 65.3419 18.1812 65.3419 17.2698V11.7301H55.3625V17.7561C55.3625 18.4826 55.5093 18.9936 55.8028 19.292C56.0963 19.5949 56.607 19.7434 57.3349 19.7434V19.9792L54.1151 19.8846L51.2754 19.9792V19.7434C52.1618 19.7434 52.74 19.5308 53.01 19.1071C53.2155 18.7767 53.3197 18.1288 53.3197 17.1708V5.841C53.3197 4.88302 53.217 4.24242 53.01 3.92795C52.7415 3.50428 52.1633 3.29172 51.2754 3.29172V3.00928L54.2927 3.10391C54.4835 3.10391 55.0602 3.0879 56.0391 3.05732L57.3335 3.01073V3.29318C56.4896 3.29318 55.9319 3.497 55.6663 3.90611C55.4638 4.22058 55.3611 4.8408 55.3611 5.7682V11.2831H65.3405V5.83809C65.3405 4.86409 65.2495 4.22786 65.0631 3.92941C64.7975 3.50574 64.2354 3.29318 63.3681 3.29318V3.01073C63.6807 3.01073 64.2633 3.02675 65.1145 3.05732L66.3854 3.10391C66.5277 3.10391 67.1103 3.0879 68.1318 3.05732L69.4261 3.01073V3.29318C68.6733 3.29318 68.1435 3.43877 67.8382 3.72995C67.533 4.02113 67.3833 4.53506 67.3833 5.2732V17.1533C67.3833 18.1433 67.4787 18.7883 67.668 19.0868C67.9366 19.5104 68.5148 19.723 69.4027 19.723L69.4261 19.9821C69.1561 19.9821 68.5823 19.9661 67.6988 19.9356L66.3751 19.8861Z" fill="black"/>
<path d="M79.4782 13.4743C79.4782 12.3591 79.2639 11.3996 78.8369 10.5989C78.2983 9.60889 77.5146 9.11389 76.4844 9.11389C75.6288 9.11389 74.8759 9.5856 74.2273 10.5276C73.6417 11.3443 73.3159 12.2091 73.2528 13.1205L73.2058 13.78H79.4782V13.4743ZM81.4506 14.1819H73.2058V14.5124L73.2293 14.7715C73.3555 16.2332 73.7841 17.4358 74.512 18.3778C75.3514 19.4784 76.4682 20.0273 77.8624 20.0273C78.7649 20.0273 79.7952 19.6895 80.9516 19.014L81.047 19.2266C79.9228 19.9487 78.6637 20.3112 77.2695 20.3112C75.4791 20.3112 74.0218 19.7652 72.8977 18.6733C71.7735 17.5814 71.21 16.1473 71.21 14.3711C71.21 13.0827 71.5431 11.9587 72.2079 11.0007C72.9211 9.96413 73.8868 9.31189 75.1063 9.044C75.6772 8.9188 76.2393 8.85474 76.794 8.85474C78.2983 8.85474 79.4635 9.34246 80.2868 10.3165C81.0631 11.2279 81.4506 12.4464 81.4506 13.9708V14.1819Z" fill="black"/>
<path d="M89.3714 10.0093C88.7741 10.0093 88.1958 10.2495 87.6367 10.7285C87.079 11.2031 86.7973 11.7418 86.7973 12.3387V18.0269C86.7973 19.1232 87.3432 19.6735 88.4365 19.6735V19.9793C88.2311 19.9793 87.7468 19.9633 86.9866 19.9327H85.8463C85.7347 19.9327 85.2519 19.9327 84.3963 19.9327L83.2795 19.9793V19.6735C84.3728 19.6735 84.9188 19.014 84.9188 17.6935V11.8961C84.9188 10.9527 84.6531 10.4824 84.1234 10.4824C83.89 10.4824 83.5848 10.529 83.2091 10.6237L83.1621 10.3179C84.4844 9.84622 85.6966 9.32064 86.7973 8.73828V11.8495L87.1979 10.9775C88.0652 9.54776 89.0588 8.83291 90.1756 8.83291C90.5395 8.83291 90.8771 8.88824 91.1926 8.99743V11.2133C90.8492 10.4111 90.2387 10.0093 89.3714 10.0093Z" fill="black"/>
<path d="M98.3223 9.49088C97.182 9.49088 96.184 9.9786 95.3285 10.957V19.3444C96.0417 19.8001 96.818 20.0287 97.6575 20.0287C99.0825 20.0287 100.192 19.455 100.984 18.3034C101.698 17.2945 102.054 16.0526 102.054 14.5705C102.054 13.183 101.786 12.0402 101.247 11.1448C100.594 10.0412 99.6211 9.49088 98.3223 9.49088ZM98.0361 20.1932C97.4975 20.1932 96.9266 20.1379 96.3249 20.0287L93.4984 19.5089V4.37194C93.4984 3.30768 93.1976 2.77336 92.5959 2.77336C92.4535 2.77336 92.1835 2.81267 91.7887 2.89129L91.7168 2.60885C92.9686 2.18518 94.172 1.66542 95.3285 1.05249V10.6469C96.0255 10.0412 96.5876 9.62482 97.0161 9.40498C97.6178 9.08614 98.2915 8.92599 99.0355 8.92599C100.556 8.92599 101.764 9.3977 102.659 10.3397C103.554 11.2831 104.002 12.5162 104.002 14.0406C104.002 15.8954 103.47 17.3833 102.409 18.5073C101.347 19.6312 99.8896 20.1932 98.0361 20.1932Z" fill="black"/>
<path d="M39.2523 13.8048C38.7298 13.93 38.2074 14.096 37.6835 14.2998C36.5901 14.7395 35.8784 15.086 35.5452 15.3364C34.832 15.8547 34.4754 16.539 34.4754 17.3878C34.4754 18.8655 35.1328 19.6037 36.4478 19.6037C37.3342 19.6037 38.269 19.1014 39.2523 18.0954V13.8048ZM39.7747 20.4044C39.5693 20.106 39.402 19.6808 39.2758 19.132C39.2435 19.0068 39.1965 18.7869 39.1334 18.4724C37.9139 19.6823 36.6386 20.288 35.3075 20.288C34.0248 20.288 33.1604 19.7303 32.7172 18.6108C32.5587 18.2177 32.4795 17.8406 32.4795 17.4752C32.4795 16.705 32.9462 16.0367 33.881 15.4675C34.3873 15.169 35.2268 14.8312 36.3993 14.4542L39.2508 13.5544V11.6865C39.2508 10.9629 39.0996 10.3747 38.7988 9.91468C38.451 9.38037 37.9271 9.11394 37.23 9.11394C36.7237 9.11394 36.2482 9.25516 35.805 9.54197C35.2987 9.85644 35.0448 10.2612 35.0448 10.7518C35.0448 11.0503 35.1167 11.4317 35.259 11.8918L33.5479 12.4378C33.5009 12.3125 33.4613 12.116 33.429 11.8481C33.429 10.9833 34.0307 10.2379 35.2341 9.60894C36.279 9.05861 37.3019 8.78345 38.2998 8.78345C39.1231 8.78345 39.785 9.02658 40.284 9.51431C40.7829 10.002 41.0324 10.6543 41.0324 11.471V17.6237C41.0324 18.503 41.3568 18.9442 42.0069 18.9442C42.1977 18.9442 42.4662 18.8655 42.814 18.7083L42.886 18.8976L39.7747 20.4044Z" fill="black"/>
<path d="M88.4572 25.615H15.543V26.1304H88.4572V25.615Z" fill="#75B051"/>
</svg>
