<svg width="104" height="71" viewBox="0 0 104 71" fill="none" xmlns="http://www.w3.org/2000/svg">
<g clip-path="url(#clip0)">
<path d="M94.7194 63.9336C94.8584 64.1948 94.9921 64.4665 95.1204 64.7543C95.2487 65.0368 95.3717 65.3299 95.4893 65.623C95.6069 65.3192 95.7298 65.0208 95.8581 64.733C95.9864 64.4452 96.1201 64.1681 96.2698 63.9017L100.156 56.2757C100.226 56.1424 100.301 56.0412 100.37 55.9666C100.445 55.892 100.525 55.844 100.611 55.8067C100.702 55.7747 100.803 55.7534 100.921 55.7428C101.033 55.7374 101.167 55.7321 101.322 55.7321H104.005V70.8295H100.905V62.143C100.905 61.722 100.926 61.2637 100.969 60.7735L96.9541 68.538C96.8311 68.7778 96.6654 68.9643 96.4515 69.0869C96.2377 69.2095 95.9971 69.2734 95.7245 69.2734H95.2487C94.9761 69.2734 94.7408 69.2095 94.527 69.0869C94.3132 68.9643 94.1474 68.7778 94.0191 68.538L89.9829 60.7681C90.0097 61.0079 90.0311 61.2477 90.0471 61.4876C90.0631 61.7274 90.0685 61.9459 90.0685 62.1484V70.8349H86.9732V55.7374H89.6568C89.8119 55.7374 89.9455 55.7428 90.0578 55.7481C90.1701 55.7534 90.2716 55.7747 90.3625 55.812C90.4534 55.844 90.5336 55.8973 90.6084 55.9719C90.6833 56.0465 90.7528 56.1478 90.8223 56.281L94.7194 63.9336ZM76.8159 62.8358H78.2272C78.703 62.8358 79.1146 62.7719 79.4514 62.6546C79.7882 62.5374 80.0609 62.3669 80.2747 62.1537C80.4885 61.9405 80.6436 61.6847 80.7451 61.4023C80.8414 61.1145 80.8895 60.8108 80.8895 60.475C80.8895 59.8142 80.6757 59.292 80.2426 58.9189C79.8096 58.5459 79.136 58.3594 78.2272 58.3594H76.8159V62.8358ZM76.8159 65.2499V70.8349H73.3036V55.7374H78.2326C79.3285 55.7374 80.264 55.8493 81.0338 56.0732C81.809 56.297 82.4398 56.6114 82.9263 57.0111C83.4128 57.4108 83.771 57.8851 83.9901 58.4286C84.2147 58.9722 84.3216 59.5691 84.3216 60.2086C84.3216 60.6989 84.2574 61.1625 84.1238 61.5995C83.9901 62.0365 83.7977 62.4361 83.5357 62.8039C83.2738 63.1716 82.9584 63.5073 82.5788 63.7951C82.1992 64.0828 81.7662 64.3227 81.2744 64.5092C81.5096 64.6264 81.7288 64.7703 81.9319 64.9462C82.1351 65.122 82.3115 65.3352 82.4719 65.575L85.6955 70.8295H82.5147C81.9266 70.8295 81.5043 70.611 81.2477 70.1687L78.7297 65.7828C78.6121 65.5963 78.4785 65.4578 78.3341 65.3725C78.1898 65.2872 77.9813 65.2446 77.7087 65.2446H76.8159V65.2499ZM67.6369 63.2781C67.6369 62.5321 67.5407 61.8606 67.3482 61.2584C67.1558 60.6615 66.8778 60.1553 66.5142 59.7396C66.1507 59.3239 65.7017 59.0095 65.1778 58.7857C64.6485 58.5672 64.0498 58.4553 63.3815 58.4553C62.7026 58.4553 62.0985 58.5672 61.5692 58.7857C61.04 59.0042 60.5909 59.3239 60.2274 59.7396C59.8639 60.1553 59.5806 60.6562 59.3881 61.2584C59.1956 61.8553 59.0994 62.5321 59.0994 63.2781C59.0994 64.0296 59.1956 64.7064 59.3881 65.3032C59.5806 65.9001 59.8639 66.4063 60.2274 66.822C60.5909 67.2377 61.04 67.5521 61.5692 67.7706C62.0985 67.9891 62.7026 68.101 63.3815 68.101C64.0551 68.101 64.6539 67.9891 65.1778 67.7706C65.707 67.5521 66.1507 67.2377 66.5142 66.822C66.8778 66.4063 67.1558 65.9001 67.3482 65.3032C67.5407 64.7064 67.6369 64.0296 67.6369 63.2781ZM71.2347 63.2781C71.2347 64.3706 71.0476 65.3832 70.668 66.3264C70.2885 67.2643 69.7592 68.0797 69.0696 68.7778C68.3853 69.4706 67.5567 70.0195 66.5944 70.4139C65.6322 70.8082 64.5523 71.0054 63.3762 71.0054C62.2001 71.0054 61.1255 70.8082 60.1526 70.4139C59.1796 70.0195 58.3563 69.4759 57.6667 68.7778C56.9771 68.085 56.4425 67.2697 56.0683 66.3264C55.6887 65.3885 55.5016 64.3706 55.5016 63.2781C55.5016 62.1857 55.694 61.1731 56.0683 60.2299C56.4478 59.292 56.9771 58.4766 57.6667 57.7838C58.3563 57.091 59.185 56.5528 60.1526 56.1584C61.1202 55.7641 62.1947 55.5669 63.3762 55.5669C64.5576 55.5669 65.6268 55.7641 66.5944 56.1584C67.562 56.5581 68.3853 57.1017 69.0696 57.7945C69.7539 58.4873 70.2885 59.3026 70.668 60.2405C71.0476 61.1838 71.2347 62.1963 71.2347 63.2781ZM42.0619 55.7321C42.2169 55.7321 42.3399 55.7374 42.4468 55.7534C42.5484 55.7694 42.6446 55.7907 42.7301 55.828C42.8157 55.8653 42.8905 55.9239 42.9707 55.9879C43.0455 56.0572 43.1311 56.1478 43.2327 56.265L50.4283 65.3352C50.4016 65.0474 50.3802 64.7596 50.3641 64.4879C50.3481 64.2161 50.3428 63.9603 50.3428 63.7151V55.7268H53.4381V70.8242H51.6098C51.3371 70.8242 51.1126 70.7816 50.9308 70.691C50.7491 70.6057 50.5619 70.4565 50.3855 70.2433L43.2433 61.2477C43.2647 61.5089 43.2808 61.7647 43.2968 62.0205C43.3128 62.2709 43.3182 62.5108 43.3182 62.7346V70.8295H40.2229V55.7321H42.0619ZM29.2851 65.0634H33.4228L32.0276 60.928C31.926 60.6669 31.8137 60.3525 31.6961 60.0007C31.5785 59.6437 31.4609 59.26 31.3433 58.8443C31.231 59.2653 31.1187 59.6543 31.0065 60.0167C30.8942 60.3738 30.7819 60.6882 30.675 60.9493L29.2851 65.0634ZM39.0147 70.8349H36.2936C35.9889 70.8349 35.743 70.7602 35.5559 70.6217C35.3688 70.4778 35.2244 70.3019 35.1282 70.0781L34.2354 67.4455H28.4725L27.5797 70.0781C27.5049 70.27 27.3659 70.4458 27.1681 70.6004C26.9703 70.7549 26.7244 70.8349 26.4357 70.8349H23.6932L29.5577 55.7374H33.1555L39.0147 70.8349ZM10.1787 55.7321H13.0067C13.3114 55.7321 13.5573 55.8014 13.7444 55.9453C13.9315 56.0892 14.0759 56.2703 14.1721 56.4888L17.1017 64.5731C17.2407 64.9248 17.3743 65.3085 17.508 65.7242C17.6416 66.1399 17.7646 66.5715 17.8822 67.0299C17.9784 66.5715 18.0907 66.1399 18.2136 65.7242C18.3366 65.3085 18.4649 64.9248 18.6039 64.5731L21.5121 56.4888C21.5869 56.297 21.7259 56.1211 21.9237 55.9613C22.1215 55.8067 22.3621 55.7321 22.6561 55.7321H25.5055L19.4325 70.8295H16.2517L10.1787 55.7321ZM9.751 55.7321V58.4286H3.53367V61.9512H8.29691V64.5412H3.53367V68.1383H9.751V70.8349H0V55.7374H9.751V55.7321Z" fill="black"/>
<path d="M80.328 44.8979H80.622L83.4981 48.5164V44.8979H83.7975V49.0546H83.5623L80.6274 45.3615V49.0546H80.328V44.8979ZM73.0949 44.8979H76.0619V45.1803H73.405V46.811H75.7946V47.0988H73.405V48.7668H76.094V49.0546H73.0949V44.8979ZM64.6804 44.8979H64.9744L66.6477 47.3546L68.321 44.8979H68.6097V49.0546H68.2996V45.4415L66.6531 47.8342H66.6263L64.9744 45.4415V49.0546H64.6751V44.8979H64.6804ZM56.1911 46.9762C56.1911 45.8411 57.0304 44.8286 58.292 44.8286C59.5537 44.8286 60.3823 45.8305 60.3823 46.9762C60.3823 48.1114 59.543 49.1292 58.276 49.1292C57.0143 49.1292 56.1911 48.122 56.1911 46.9762ZM60.0615 46.9762C60.0615 45.9477 59.3131 45.1057 58.2813 45.1057C57.2549 45.1057 56.5118 45.9371 56.5118 46.9762C56.5118 48.0048 57.2602 48.8468 58.292 48.8468C59.3238 48.8468 60.0615 48.0154 60.0615 46.9762ZM46.4507 44.8979H46.7982L48.108 48.5963L49.3269 44.8872H49.5674L50.7863 48.5963L52.0961 44.8979H52.4168L50.9039 49.0866H50.6527L49.4284 45.4734L48.2096 49.0866H47.9583L46.4507 44.8979ZM35.545 44.8979H37.2985C37.8117 44.8979 38.2233 45.0578 38.4692 45.3082C38.667 45.5054 38.7847 45.7825 38.7847 46.0916C38.7847 46.7844 38.2661 47.1841 37.5658 47.28L38.9397 49.0546H38.5441L37.2129 47.3333H35.8497V49.0546H35.5397V44.8979H35.545ZM37.2611 47.0562C37.956 47.0562 38.4746 46.7045 38.4746 46.0916C38.4746 45.5321 38.0362 45.1803 37.2771 45.1803H35.8551V47.0509H37.2611V47.0562ZM27.0503 46.9762C27.0503 45.8411 27.8896 44.8286 29.1566 44.8286C30.4183 44.8286 31.2469 45.8305 31.2469 46.9762C31.2469 48.1114 30.4076 49.1292 29.1459 49.1292C27.8789 49.1292 27.0503 48.122 27.0503 46.9762ZM30.9261 46.9762C30.9261 45.9477 30.1777 45.1057 29.1459 45.1057C28.1141 45.1057 27.3764 45.9371 27.3764 46.9762C27.3764 48.0048 28.1248 48.8468 29.1566 48.8468C30.183 48.8468 30.9261 48.0154 30.9261 46.9762ZM20.2021 44.8979H23.1371V45.1803H20.5122V46.8857H22.8698V47.1681H20.5122V49.0493H20.2021V44.8979Z" fill="black"/>
<mask id="mask0" mask-type="alpha" maskUnits="userSpaceOnUse" x="35" y="4" width="34" height="33">
<path d="M68.3103 4.72168H35.668V36.1422H68.3103V4.72168Z" fill="url(#paint0_linear)"/>
</mask>
<g mask="url(#mask0)">
<path fill-rule="evenodd" clip-rule="evenodd" d="M51.9891 4.72168C61.0024 4.72168 68.3103 11.7721 68.3103 20.4639C68.3103 26.1981 65.1295 31.2181 60.3769 33.9733C57.9231 35.3908 55.0577 36.1422 51.9891 36.1422C48.9259 36.1422 46.0605 35.3962 43.612 33.9786C38.8542 31.2288 35.668 26.2034 35.668 20.4639C35.668 11.7721 42.9759 4.72168 51.9891 4.72168Z" fill="#F9D2DD"/>
<path d="M53.5288 29.8325C53.5288 29.8325 55.3839 28.8413 56.6348 28.884C57.6612 28.9213 58.8213 28.9159 60.115 28.6175C60.2594 28.3457 60.6443 27.7009 61.1414 27.3119C61.7883 26.8056 63.4242 26.4059 66.8883 23.7733C66.589 24.0291 64.1138 26.1128 62.3336 26.9282C60.8795 27.5943 60.6817 28.2125 60.6657 28.4683C61.9059 28.1006 63.2638 27.4398 64.75 26.2567C64.5682 26.4166 61.6386 29.0385 58.0836 29.3902C54.4162 29.7579 53.315 30.3388 53.2401 31.9482C53.2241 32.252 53.2722 33.7121 53.4647 35.9717C52.9782 36.0143 52.4864 36.0356 51.9945 36.0356C51.5936 36.0356 51.1926 36.0197 50.797 35.993C51.1231 33.2219 51.2354 31.394 51.1124 31.1435C50.5244 29.9711 49.3536 28.4363 47.5895 28.4363C45.8307 28.4363 44.291 28.2178 42.6765 27.9993C41.1636 27.7915 35.9086 26.1714 35.2617 25.9689C35.8872 26.1448 40.7787 27.4984 43.2913 27.7062C43.7244 27.7435 44.1788 27.7702 44.6332 27.7968C44.0665 27.3918 42.9973 26.5871 42.035 25.6065C40.7948 24.3435 37.8438 21.7909 36.1331 20.9116C37.1488 21.3805 39.3941 22.5743 41.725 24.8391C43.564 26.6297 44.9486 27.493 45.6329 27.8554C47.6536 27.9833 49.5995 28.2178 50.6046 29.3209C50.6046 29.3209 50.2731 28.2924 49.637 26.9335C48.5517 25.9956 45.1624 23.1924 42.4841 22.2812C42.7033 22.3451 46.3064 23.4109 49.1558 25.9476C48.1348 23.9971 46.5951 21.7323 44.5904 20.7624C40.4901 18.7746 37.5498 18.5668 35.8658 17.1066C36.0048 17.1599 40.5221 18.8545 43.2272 19.6592C46.6058 20.6664 50.4121 24.1357 51.3797 29.694C51.3797 29.694 51.4172 25.2175 49.4338 21.8548C47.4505 18.4921 47.1618 15.2734 45.6168 13.8878C44.1734 12.5821 41.1797 11.8627 40.8108 11.7774C42.8155 12.2198 44.863 12.6727 46.3813 14.1702C46.8571 14.6392 47.1939 15.2574 47.4719 15.9075C47.4719 15.5025 47.5627 15.0335 47.8781 14.5912C47.9316 14.5166 47.9851 14.4367 48.0332 14.3621C47.7873 14.0743 47.3382 13.3975 47.2313 12.1878C47.2634 12.353 47.5253 13.6799 48.1508 14.1702C48.68 13.2643 48.8083 12.3743 48.6373 11.0847C48.4395 9.59783 47.0068 7.07715 47.0068 7.07715C47.0068 7.07715 48.7175 9.48592 48.9473 11.4204C49.1719 13.3549 48.3646 14.6658 48.1882 15.5132C48.0706 16.0727 48.68 18.7479 48.6854 18.7693C49.4819 20.4852 50.3266 22.1 51.2461 24.0451C52.0213 25.6865 52.3634 27.4824 52.3634 27.4824C52.3634 27.4824 52.326 25.3401 53.5662 23.4482C53.2081 22.9366 52.5024 21.6363 51.925 18.716C51.647 17.2824 51.6096 15.7583 52.1068 14.3621C52.1549 14.2342 52.203 14.1169 52.2565 13.9944C52.2565 13.9944 51.1445 11.3564 51.7165 8.79313C51.6952 9.04893 51.4492 11.8894 52.5077 13.5307C52.8445 12.9765 53.2776 12.4809 53.7427 12.0226C54.3628 11.4097 55.031 10.8448 55.571 10.168C56.1163 9.49124 56.5439 8.68122 56.5867 7.81257C56.576 8.72385 56.2071 9.59783 55.6886 10.3492C55.1059 11.1966 54.3147 11.9053 53.5823 12.6141C51.6898 14.4313 52.0801 17.3251 52.6521 19.6166C52.9301 20.7251 53.2455 21.9721 53.9832 22.8834C54.3681 22.4197 54.8493 21.9881 55.4427 21.631C55.8062 21.4125 56.1751 21.1993 56.5439 20.9862C56.5012 20.7783 56.4477 20.5012 56.4477 20.4746C56.3836 19.8031 56.4477 19.121 56.6027 18.4602C56.9342 17.0586 57.6773 15.9022 58.5273 14.7564C58.7839 14.41 59.0351 14.053 59.2116 13.6586C59.388 13.2643 59.4789 12.822 59.404 12.3956C59.559 12.9179 59.4735 13.4881 59.2704 13.9944C58.9282 14.8417 58.3027 15.5451 57.8109 16.3072C57.3244 17.0586 56.9075 17.8793 56.7524 18.7693C56.5867 19.6965 56.7471 20.4639 56.8433 20.8156C59.5697 19.2382 62.232 17.5382 62.9216 12.8593C62.9216 12.8593 62.6543 18.5188 57.3244 21.21C51.9945 23.9012 53.0958 28.6495 53.0958 28.6495C53.0958 28.6495 55.0043 23.8266 58.1531 22.5796C58.5647 22.4197 58.9656 22.3344 59.3666 22.3025C59.821 21.5191 61.3339 19.3928 64.6858 18.7693C67.8773 18.1724 68.6953 17.5063 68.7861 17.4263C68.7113 17.5169 67.8453 18.3962 64.3223 19.2649C61.4087 19.979 60.4892 21.6257 60.2273 22.2971C62.5688 22.4464 64.9317 23.6614 68.7968 20.0909C68.7968 20.0909 67.4015 23.0166 63.0018 23.0166C58.5914 23.0379 57.0464 22.5956 53.5288 29.8325Z" fill="black"/>
<path d="M36.1223 20.9168C35.9138 20.8102 35.7267 20.725 35.5557 20.677C35.561 20.677 35.7642 20.7516 36.1223 20.9168Z" fill="black"/>
<path d="M51.9894 36.1955C50.5032 36.1955 49.0224 35.9983 47.6004 35.6146C46.173 35.2309 44.7991 34.6607 43.5107 33.9199C46.713 35.4494 49.8297 35.8597 51.9948 35.8597C54.1599 35.8597 57.2766 35.4494 60.4788 33.9199C59.1904 34.666 57.8112 35.2362 56.3891 35.6146C54.9564 35.9983 53.4756 36.1955 51.9894 36.1955Z" fill="black"/>
<path d="M37.5986 27.6794L37.5612 27.8499H37.7376C38.2294 27.8499 38.4967 27.5888 38.625 27.3383C38.6785 27.2371 38.7052 27.1358 38.7159 27.0506L38.7319 26.8907H38.5715C37.93 26.8907 37.6574 27.4076 37.5986 27.6794ZM66.9478 17.618C67.0227 17.634 67.0975 17.6393 67.167 17.6393C67.7069 17.6393 67.9796 17.2396 68.0491 17.0052L68.0972 16.8506L67.9368 16.824C67.3113 16.7121 66.9478 17.1704 66.8409 17.4262L66.7767 17.586L66.9478 17.618ZM62.5588 31.4258L62.4038 31.5111L62.5214 31.6443C62.7566 31.9161 63.0239 32.0067 63.2538 32.0067C63.4676 32.0067 63.6547 31.9321 63.767 31.8521L63.9006 31.7615L63.7937 31.639C63.3767 31.1593 62.8047 31.2926 62.5588 31.4258ZM63.2377 29.6139L63.3607 29.5126L63.2431 29.4007C62.3931 28.596 61.4201 29.2515 61.4094 29.2568L61.2651 29.3581L61.3934 29.4807C61.6072 29.6832 61.8211 29.8004 62.0242 29.859C62.6978 30.0562 63.2324 29.6192 63.2377 29.6139ZM68.0063 22.8086C67.3969 21.812 66.2849 22.1904 66.2742 22.1904L66.1085 22.249L66.1994 22.3982C66.3544 22.6487 66.5308 22.8192 66.7072 22.9312C67.3006 23.2935 67.9315 23.0164 67.9422 23.0111L68.0865 22.9418L68.0063 22.8086ZM41.2659 30.2534L41.2231 30.4239L41.3995 30.4292C41.7791 30.4452 42.0624 30.3493 42.2763 30.2161C42.7734 29.891 42.8697 29.3208 42.8697 29.3155L42.8964 29.1556L42.736 29.1503C41.5653 29.1076 41.2659 30.2374 41.2659 30.2534ZM59.1427 13.9729L59.3191 13.9835C60.5968 14.0528 60.8053 12.9017 60.8107 12.8911L60.8374 12.7312L60.677 12.7205C59.5116 12.6619 59.1962 13.7864 59.1908 13.797L59.1427 13.9729ZM43.4952 24.1249L43.4203 23.981L43.2867 24.0716C42.3137 24.7164 42.736 25.8089 42.7414 25.8195L42.8055 25.9847L42.9552 25.8888C44.0191 25.1801 43.4952 24.1249 43.4952 24.1249ZM63.644 8.25473L63.6547 8.09486L63.4943 8.10019C62.3289 8.14282 62.1097 9.29391 62.1097 9.30457L62.0777 9.48044L62.2541 9.47511C63.5371 9.42714 63.644 8.26539 63.644 8.25473ZM56.9669 11.9212L57.0792 11.7879C57.9025 10.8127 57.1113 9.95473 57.1059 9.94407L56.9937 9.82683L56.8921 9.9494C56.1383 10.8394 56.8493 11.772 56.86 11.7826L56.9669 11.9212ZM49.2527 11.3243L49.3917 11.2124C50.3861 10.4077 49.7659 9.41649 49.7606 9.40583L49.6751 9.2726L49.5521 9.37385C48.6486 10.1093 49.1725 11.1591 49.1779 11.1698L49.2527 11.3243ZM47.5474 17.4102C46.4194 16.808 45.7404 17.7566 45.7351 17.7619L45.6442 17.8951L45.7886 17.9697C46.2697 18.2255 46.692 18.1722 47.0074 18.039C47.371 17.8845 47.5901 17.634 47.5955 17.6287L47.7078 17.4954L47.5474 17.4102ZM36.9945 17.9324L37.0693 17.7726L36.8983 17.7353C35.6473 17.4581 35.2517 18.5559 35.2517 18.5666L35.1982 18.7158L35.3533 18.7478C36.492 19.0036 36.9891 17.9431 36.9945 17.9324ZM52.6528 7.09831L52.7971 7.19424L52.8612 7.02904C53.3317 5.84597 52.3106 5.28108 52.2999 5.27575L52.1609 5.20114L52.1021 5.35036C51.6744 6.43217 52.6421 7.08766 52.6528 7.09831ZM46.0559 5.67544L46.1842 5.79801L46.275 5.64879C46.9379 4.56165 46.0238 3.83156 46.0184 3.82623L45.8901 3.72497L45.8046 3.86353C45.2005 4.86008 46.0505 5.67011 46.0559 5.67544ZM42.3672 12.2676L42.5275 12.193L42.4206 12.0544C41.6401 11.0419 40.6297 11.6281 40.619 11.6334L40.48 11.7187L40.5763 11.8466C41.2926 12.7685 42.3565 12.2729 42.3672 12.2676ZM61.3132 24.1569L61.2865 24.3327L61.4629 24.3221C62.7406 24.2634 62.8368 23.1017 62.8368 23.091L62.8475 22.9312L62.6871 22.9365C61.5163 22.9898 61.3132 24.1462 61.3132 24.1569ZM60.8053 20.7835L60.8909 20.629C61.511 19.5152 60.5648 18.8224 60.5594 18.8171L60.4258 18.7211L60.3456 18.8597C59.7842 19.8776 60.661 20.6556 60.6663 20.6609L60.8053 20.7835ZM63.6654 15.2839L63.5959 15.4437L63.7723 15.4757C63.8525 15.4917 63.9274 15.497 63.9969 15.497C64.5314 15.497 64.8041 15.1027 64.8736 14.8682L64.9217 14.7136L64.7613 14.6817C64.1358 14.5751 63.7723 15.0281 63.6654 15.2839ZM57.8116 28.8891L57.972 28.8198C58.6135 28.5427 58.6295 27.9672 58.5493 27.7007L58.5012 27.5462L58.3515 27.6101C57.7688 27.8606 57.7154 28.4415 57.7688 28.7133L57.8116 28.8891ZM51.9631 17.9538C51.8829 17.3249 51.3377 17.1117 51.0597 17.0904L50.8832 17.0744L50.9046 17.2503C50.9902 17.9324 51.5355 18.1136 51.8134 18.1136H51.8188H51.9792L51.9631 17.9538ZM39.5605 21.4816L39.4697 21.3324L39.3413 21.455C38.8816 21.8866 38.9885 22.3823 39.1382 22.6327C39.1542 22.6594 39.1703 22.6807 39.181 22.702L39.2772 22.8299L39.3948 22.718C39.8599 22.281 39.7049 21.7268 39.5605 21.4816ZM39.1436 16.6268L38.9778 16.5682L38.9511 16.744C38.8495 17.4315 39.336 17.7459 39.6086 17.8205L39.7637 17.8632L39.7851 17.7033C39.8759 17.0691 39.4055 16.7227 39.1436 16.6268ZM59.1855 7.44471L59.1802 7.28483L59.0198 7.31148C58.389 7.41273 58.1965 7.96163 58.1858 8.23875L58.1751 8.41461L58.3515 8.38796C59.0412 8.27605 59.2015 7.72182 59.1855 7.44471ZM44.7728 7.56728C44.7889 7.56728 44.8049 7.56728 44.8209 7.56728L44.9974 7.55662L44.9492 7.38609C44.7621 6.71462 44.1901 6.62402 43.9175 6.66665L43.7571 6.6933L43.7999 6.84785C43.9602 7.41806 44.4788 7.56728 44.7728 7.56728ZM39.9936 13.376C40.2074 13.9409 40.7634 14.0368 41.0307 14.0049L41.2071 13.9835L41.1536 13.8183C40.9344 13.1522 40.3624 13.0883 40.0898 13.1469L39.9294 13.1789L39.9829 13.3334C39.9829 13.3441 39.9882 13.36 39.9936 13.376ZM35.4388 23.4587L35.2784 23.4534L35.2945 23.6133C35.3212 23.8904 35.4388 24.0876 35.5885 24.2261C35.781 24.4073 36.0162 24.4873 36.1766 24.5033L36.353 24.5246L36.3369 24.3487C36.2674 23.6612 35.7221 23.4641 35.4388 23.4587ZM41.5332 25.2227C41.5599 25.1907 41.5813 25.1534 41.6027 25.1268L41.6936 24.9775L41.5278 24.9189C40.8703 24.6951 40.4693 25.1108 40.3464 25.3666L40.2769 25.5105L40.4319 25.5637C40.9558 25.7343 41.3461 25.4572 41.5332 25.2227ZM49.5628 5.22779L49.6804 5.09456C50.1348 4.56698 49.8996 4.03939 49.7071 3.83689L49.6002 3.71965L49.4933 3.84222C49.0817 4.32184 49.2902 4.87074 49.4559 5.08923L49.5628 5.22779ZM39.4269 10.6901L39.4215 10.5143C39.4002 9.8215 38.8656 9.59235 38.5876 9.57103L38.4272 9.56037L38.4325 9.72025C38.4539 10.3544 38.9778 10.6155 39.2505 10.6635L39.4269 10.6901ZM52.4656 9.34188L52.316 9.28859L52.2785 9.44313C52.1342 10.0613 52.5726 10.4503 52.8238 10.5676L52.9842 10.6422L53.027 10.4717C53.182 9.79485 52.7276 9.4378 52.4656 9.34188ZM53.7754 14.0155L53.6257 14.0741C53.0323 14.298 52.9521 14.8735 52.9896 15.1506L53.0163 15.3265L53.182 15.2625C53.8342 15.0174 53.8823 14.4419 53.8128 14.1754L53.7754 14.0155ZM46.9112 12.0171L46.7722 11.9318L46.7081 12.0757C46.4461 12.6566 46.7989 13.1202 47.0235 13.2854L47.1678 13.392L47.2427 13.2321C47.526 12.598 47.1518 12.161 46.9112 12.0171ZM36.8662 13.7278L37.0372 13.7651V13.5892C37.0319 12.8964 36.508 12.6513 36.23 12.6193L36.0696 12.6033V12.7632C36.075 13.3973 36.5935 13.6691 36.8662 13.7278ZM41.9395 20.3838L41.8593 20.5224L42.009 20.5863C42.426 20.7675 42.7788 20.6343 43.0087 20.4584C43.0995 20.3892 43.169 20.3146 43.2172 20.2506L43.3187 20.1067L43.1584 20.0374C42.5115 19.7603 42.0785 20.144 41.9395 20.3838ZM63.3233 12.3742L63.3286 12.55L63.4997 12.5074C64.1786 12.3475 64.2962 11.7826 64.2641 11.5055L64.2481 11.3456L64.0931 11.3829C63.4676 11.5375 63.3179 12.097 63.3233 12.3742ZM56.1009 5.15851L56.2613 5.0839C56.8921 4.78547 56.8814 4.2046 56.7959 3.94347L56.7424 3.79425L56.5981 3.86353C56.026 4.14065 55.9993 4.72152 56.0635 4.99331L56.1009 5.15851ZM64.061 26.9227L63.9006 26.9973L64.0075 27.1358C64.1091 27.2637 64.216 27.3597 64.323 27.4236C64.6758 27.6314 65.05 27.5355 65.2371 27.4236L65.3761 27.3437L65.2799 27.2158C64.8896 26.7148 64.3123 26.8054 64.061 26.9227ZM57.138 32.3744L56.9616 32.4064L57.0311 32.5716C57.122 32.7954 57.2556 32.9499 57.4 33.0458C57.6673 33.2217 57.972 33.2164 58.143 33.1684L58.2981 33.1258L58.2393 32.9766C57.9934 32.3904 57.4106 32.3264 57.138 32.3744ZM36.4225 21.812C36.3316 21.892 36.2835 22.0039 36.2835 22.1265V22.1584C36.2835 22.4355 36.5027 22.5794 36.7165 22.5794C36.8288 22.5794 36.9303 22.5421 37.0105 22.4782C37.1014 22.4036 37.1495 22.2863 37.1495 22.1638V22.1318C37.1442 21.7108 36.6523 21.6149 36.4225 21.812ZM42.0678 24.0663C42.3458 24.0663 42.4901 23.8478 42.4901 23.6346C42.4901 23.4214 42.3458 23.2029 42.0678 23.2029C41.7898 23.2029 41.6455 23.4214 41.6455 23.6346C41.6455 23.8531 41.7898 24.0663 42.0678 24.0663ZM40.8168 28.5534C40.8168 28.3402 40.6725 28.1217 40.3945 28.1217C40.1165 28.1217 39.9722 28.3402 39.9722 28.5534C39.9722 28.7666 40.1165 28.985 40.3945 28.985C40.6725 28.985 40.8168 28.7666 40.8168 28.5534ZM45.2647 22.2757C45.2647 22.0625 45.1203 21.844 44.8423 21.844C44.5643 21.844 44.42 22.0625 44.42 22.2757C44.42 22.4888 44.5643 22.7073 44.8423 22.7073C45.115 22.7073 45.2647 22.4888 45.2647 22.2757ZM43.7357 18.3854C44.0137 18.3854 44.158 18.1669 44.158 17.9538C44.158 17.7406 44.0137 17.5221 43.7357 17.5221C43.4577 17.5221 43.3134 17.7406 43.3134 17.9538C43.3134 18.1722 43.4577 18.3854 43.7357 18.3854ZM37.5344 15.9607C37.5344 15.7475 37.3901 15.529 37.1121 15.529C36.8341 15.529 36.6898 15.7475 36.6898 15.9607C36.6898 16.1738 36.8341 16.3923 37.1121 16.3923C37.3901 16.3923 37.5344 16.1738 37.5344 15.9607ZM40.726 8.87824C40.9398 8.87824 41.159 8.73436 41.159 8.45724V8.41994C41.159 8.00427 40.6671 7.90301 40.4373 8.10552C40.3464 8.18546 40.2983 8.29737 40.2983 8.41994V8.45724C40.2929 8.73436 40.5121 8.87824 40.726 8.87824ZM45.9864 8.60646C45.8955 8.68639 45.8474 8.79831 45.8474 8.92088V8.95285C45.8474 9.22997 46.0666 9.37385 46.2804 9.37385C46.3927 9.37385 46.4942 9.33655 46.5744 9.2726C46.6653 9.19266 46.7134 9.08075 46.7134 8.95818V8.92621C46.7081 8.5052 46.2162 8.40928 45.9864 8.60646ZM46.275 7.55662V7.58859C46.275 7.86571 46.4942 8.00959 46.7081 8.00959C46.8203 8.00959 46.9219 7.97229 47.0021 7.90301C47.093 7.82308 47.1411 7.71116 47.1411 7.58859V7.55662C47.1411 7.14095 46.6493 7.03969 46.4194 7.2422C46.3285 7.31681 46.275 7.42872 46.275 7.55662ZM51.0864 12.7205C50.8084 12.7205 50.6641 12.939 50.6641 13.1522C50.6641 13.3654 50.8084 13.5839 51.0864 13.5839C51.2147 13.5839 51.327 13.5359 51.4018 13.4453C51.4713 13.3654 51.5034 13.2641 51.5034 13.1522C51.5087 12.939 51.3644 12.7205 51.0864 12.7205ZM55.1119 8.29737C55.2402 8.29737 55.3525 8.24941 55.4273 8.15881C55.4968 8.07887 55.5289 7.97762 55.5289 7.86571C55.5289 7.65254 55.3845 7.43405 55.1065 7.43405C54.9782 7.43405 54.866 7.48201 54.7911 7.57261C54.7216 7.65254 54.6842 7.7538 54.6842 7.86571C54.6896 8.07887 54.8339 8.29737 55.1119 8.29737ZM49.4826 6.37888C49.4826 6.59205 49.627 6.81054 49.9049 6.81054C50.1829 6.81054 50.3273 6.59205 50.3273 6.37888C50.3273 6.16572 50.1829 5.94722 49.9049 5.94722C49.627 5.94722 49.4826 6.16572 49.4826 6.37888ZM53.2301 3.80491C53.1606 3.88485 53.1285 3.9861 53.1285 4.09801C53.1285 4.31118 53.2729 4.52967 53.5509 4.52967C53.8289 4.52967 53.9732 4.31118 53.9732 4.09801C53.9732 3.99143 53.9358 3.88485 53.8663 3.81024C53.7113 3.62372 53.3852 3.62372 53.2301 3.80491ZM59.6613 6.74126C59.7896 6.74126 59.9019 6.6933 59.9767 6.60271C60.0462 6.52277 60.0783 6.42151 60.0783 6.3096C60.0783 6.09644 59.9339 5.87794 59.6559 5.87794C59.378 5.87794 59.2336 6.09644 59.2336 6.3096C59.2336 6.42151 59.271 6.52277 59.3405 6.60271C59.4207 6.68797 59.533 6.74126 59.6613 6.74126ZM61.4094 12.1024C61.5377 12.1024 61.65 12.0544 61.7248 11.9638C61.7943 11.8839 61.8264 11.7826 61.8264 11.6707C61.8264 11.4575 61.6821 11.239 61.4041 11.239C61.2758 11.239 61.1635 11.287 61.0887 11.3776C61.0192 11.4575 60.9871 11.5588 60.9871 11.6707C60.9871 11.8892 61.1314 12.1024 61.4094 12.1024ZM65.8412 13.5945C66.1192 13.5945 66.2635 13.376 66.2635 13.1629C66.2635 13.051 66.2261 12.9497 66.162 12.8698C66.0069 12.6886 65.6808 12.6886 65.5258 12.8698C65.4563 12.9497 65.4189 13.051 65.4189 13.1629C65.4242 13.376 65.5686 13.5945 65.8412 13.5945ZM63.1736 17.229C63.2431 17.1491 63.2805 17.0478 63.2805 16.9359C63.2805 16.7227 63.1362 16.5042 62.8582 16.5042C62.7299 16.5042 62.6176 16.5522 62.5428 16.6428C62.4733 16.7227 62.4412 16.824 62.4412 16.9359C62.4412 17.1491 62.5855 17.3675 62.8635 17.3675C62.9865 17.3675 63.0987 17.3143 63.1736 17.229ZM57.71 19.5845C57.8383 19.5845 57.9506 19.5365 58.0254 19.4459C58.0949 19.366 58.127 19.2647 58.127 19.1528C58.127 18.9396 57.9827 18.7211 57.7047 18.7211C57.5764 18.7211 57.4641 18.7691 57.3893 18.8597C57.3198 18.9396 57.2823 19.0409 57.2823 19.1528C57.2877 19.366 57.432 19.5845 57.71 19.5845ZM67.3701 18.7211C67.2418 18.7211 67.1296 18.7691 67.0547 18.8597C66.9852 18.9396 66.9478 19.0409 66.9478 19.1528C66.9478 19.366 67.0922 19.5845 67.3701 19.5845C67.4984 19.5845 67.6107 19.5365 67.6856 19.4459C67.7551 19.366 67.7925 19.2647 67.7925 19.1528C67.7925 18.9396 67.6481 18.7211 67.3701 18.7211ZM64.4459 21.5189C64.4459 21.3058 64.3016 21.0873 64.0236 21.0873C63.8953 21.0873 63.783 21.1352 63.7082 21.2258C63.6387 21.3058 63.6066 21.407 63.6066 21.5189C63.6066 21.7321 63.7509 21.9506 64.0289 21.9506C64.1572 21.9506 64.2695 21.9026 64.3443 21.812C64.4138 21.7321 64.4459 21.6308 64.4459 21.5189ZM66.4132 25.5691C66.5415 25.5691 66.6538 25.5211 66.7286 25.4305C66.7981 25.3506 66.8302 25.2493 66.8302 25.1374C66.8302 24.9243 66.6859 24.7058 66.4079 24.7058C66.1299 24.7058 65.9855 24.9243 65.9855 25.1374C65.9855 25.2493 66.023 25.3506 66.0871 25.4252C66.1727 25.5211 66.2903 25.5691 66.4132 25.5691ZM58.1805 24.5459C57.9025 24.5459 57.7581 24.7644 57.7581 24.9775C57.7581 25.0841 57.7956 25.1907 57.8651 25.2653C57.9452 25.3559 58.0575 25.4039 58.1805 25.4039C58.3088 25.4039 58.421 25.3559 58.4959 25.2653C58.5654 25.1854 58.6028 25.0841 58.6028 24.9722C58.6028 24.7644 58.4585 24.5459 58.1805 24.5459ZM60.3563 31.0154C60.0783 31.0154 59.9339 31.2339 59.9339 31.4471C59.9339 31.5537 59.9714 31.6603 60.0409 31.7349C60.1157 31.8255 60.2333 31.8734 60.3563 31.8734C60.4846 31.8734 60.5968 31.8255 60.6717 31.7349C60.7412 31.6549 60.7732 31.5537 60.7786 31.4418C60.7786 31.2339 60.6343 31.0154 60.3563 31.0154ZM49.0763 22.3982C48.7983 22.3982 48.654 22.6167 48.654 22.8299C48.654 23.0431 48.7983 23.2616 49.0763 23.2616C49.3543 23.2616 49.4986 23.0431 49.4986 22.8299C49.4933 22.6114 49.349 22.3982 49.0763 22.3982ZM46.0398 29.2302C45.7618 29.2302 45.6175 29.4487 45.6175 29.6618C45.6175 29.875 45.7618 30.0935 46.0398 30.0935C46.3178 30.0935 46.4622 29.875 46.4622 29.6618C46.4568 29.4434 46.3125 29.2302 46.0398 29.2302ZM49.8622 16.5682C49.8622 16.355 49.7178 16.1365 49.4398 16.1365C49.1619 16.1365 49.0175 16.355 49.0175 16.5682C49.0175 16.7813 49.1619 16.9998 49.4398 16.9998C49.7178 16.9945 49.8622 16.7813 49.8622 16.5682ZM57.2877 13.2748C57.0097 13.2748 56.8654 13.4933 56.8654 13.7064C56.8654 13.813 56.9028 13.9196 56.9669 13.9942C57.0418 14.0848 57.1594 14.1328 57.2823 14.1328C57.4106 14.1328 57.5229 14.0848 57.5978 13.9942C57.6673 13.9143 57.7047 13.813 57.7047 13.7011C57.71 13.4933 57.5657 13.2748 57.2877 13.2748ZM47.2106 9.6936C46.9326 9.6936 46.7883 9.91209 46.7883 10.1253C46.7883 10.3384 46.9326 10.5569 47.2106 10.5569C47.3389 10.5569 47.4512 10.509 47.526 10.4184C47.5955 10.3384 47.6276 10.2372 47.6276 10.1253C47.6276 9.91209 47.4832 9.6936 47.2106 9.6936ZM39.6247 19.4512C39.3467 19.4512 39.2024 19.6697 39.2024 19.8829C39.2024 20.0961 39.3467 20.3146 39.6247 20.3146C39.9027 20.3146 40.047 20.0961 40.047 19.8829C40.047 19.6644 39.9027 19.4512 39.6247 19.4512ZM53.9251 18.3161C53.9251 18.103 53.7808 17.8845 53.5028 17.8845C53.2248 17.8845 53.0804 18.103 53.0804 18.3161C53.0804 18.5293 53.2248 18.7478 53.5028 18.7478C53.7808 18.7478 53.9251 18.5293 53.9251 18.3161ZM60.8374 15.4704C60.9657 15.4704 61.078 15.4224 61.1528 15.3318C61.2223 15.2519 61.2597 15.1506 61.2597 15.0387C61.2597 14.8256 61.1154 14.6071 60.8374 14.6071C60.7091 14.6071 60.5968 14.655 60.522 14.7456C60.4578 14.8256 60.4204 14.9268 60.4204 15.0387C60.4151 15.2519 60.5594 15.4704 60.8374 15.4704ZM62.7994 14.1701C62.9597 14.1701 63.0827 14.0475 63.0827 13.8823C63.0827 13.7171 62.9597 13.5945 62.7994 13.5945C62.7138 13.5945 62.639 13.6265 62.5855 13.6904C62.5428 13.7437 62.516 13.813 62.516 13.8823C62.516 14.0475 62.639 14.1701 62.7994 14.1701ZM65.3868 16.4349C65.4723 16.4349 65.5472 16.403 65.6006 16.339C65.6434 16.2857 65.6701 16.2165 65.6701 16.1472C65.6701 15.982 65.5472 15.8594 65.3868 15.8594C65.2264 15.8594 65.1035 15.982 65.1035 16.1472C65.1035 16.3124 65.2211 16.4349 65.3868 16.4349ZM62.0242 18.2255C61.9814 18.2788 61.9547 18.3481 61.9547 18.4174C61.9547 18.5826 62.0777 18.7052 62.238 18.7052C62.3984 18.7052 62.5214 18.5826 62.5214 18.4174C62.5214 18.3481 62.4946 18.2788 62.4519 18.2255C62.345 18.103 62.1258 18.103 62.0242 18.2255ZM65.8465 18.4174C65.8465 18.3481 65.8198 18.2788 65.7771 18.2255C65.6701 18.103 65.4563 18.103 65.3494 18.2255C65.3066 18.2788 65.2799 18.3481 65.2799 18.4174C65.2799 18.5826 65.4028 18.7052 65.5632 18.7052C65.7236 18.7052 65.8465 18.5773 65.8465 18.4174ZM65.9909 20.9167C66.0764 20.9167 66.1513 20.8848 66.2047 20.8208C66.2475 20.7675 66.2742 20.6983 66.2742 20.629C66.2742 20.4638 66.1513 20.3412 65.9909 20.3412C65.9054 20.3412 65.8305 20.3732 65.7771 20.4371C65.7343 20.4904 65.7076 20.5597 65.7076 20.629C65.7129 20.7942 65.8305 20.9167 65.9909 20.9167ZM61.5805 21.9453C61.5805 22.0145 61.6072 22.0838 61.65 22.1371C61.7034 22.1957 61.7783 22.233 61.8638 22.233C61.9494 22.233 62.0242 22.2011 62.0777 22.1371C62.1204 22.0838 62.1472 22.0145 62.1472 21.9453C62.1472 21.7801 62.0242 21.6575 61.8638 21.6575C61.7034 21.6575 61.5805 21.7801 61.5805 21.9453ZM62.8742 24.855C62.7887 24.855 62.7138 24.8869 62.6604 24.9509C62.6176 25.0042 62.5909 25.0735 62.5909 25.1427C62.5909 25.3079 62.7138 25.4305 62.8742 25.4305C62.9597 25.4305 63.0346 25.3985 63.088 25.3346C63.1308 25.2813 63.1575 25.2174 63.1575 25.1427C63.1522 24.9775 63.0346 24.855 62.8742 24.855ZM59.2443 30.3866C59.2871 30.3333 59.3138 30.264 59.3138 30.1948C59.3138 30.0296 59.1908 29.907 59.0305 29.907C58.8701 29.907 58.7471 30.0296 58.7471 30.1948C58.7471 30.36 58.8701 30.4825 59.0305 30.4825C59.116 30.4825 59.1962 30.4452 59.2443 30.3866ZM56.6088 26.7841C56.6515 26.7308 56.6783 26.6615 56.6783 26.5923C56.6783 26.4271 56.5553 26.3045 56.3949 26.3045C56.2345 26.3045 56.1116 26.4271 56.1116 26.5923C56.1116 26.7575 56.2345 26.88 56.3949 26.88C56.4805 26.8747 56.5553 26.8427 56.6088 26.7841ZM52.0112 23.1337H51.9685C51.8829 23.1337 51.8081 23.1656 51.7546 23.2296C51.7119 23.2829 51.6851 23.3522 51.6851 23.4214C51.6851 23.5866 51.8081 23.7092 51.9685 23.7092H52.0112C52.0968 23.7092 52.1716 23.6772 52.2251 23.6133C52.2678 23.56 52.2946 23.4907 52.2946 23.4214C52.2946 23.2562 52.1716 23.1337 52.0112 23.1337ZM47.2213 27.2744C47.264 27.2211 47.2908 27.1518 47.2908 27.0825C47.2908 26.9173 47.1678 26.7948 47.0074 26.7948C46.9219 26.7948 46.8471 26.8267 46.7936 26.8907C46.7508 26.944 46.7241 27.0133 46.7241 27.0825C46.7241 27.2478 46.8471 27.3703 47.0074 27.3703C47.093 27.3703 47.1678 27.3383 47.2213 27.2744ZM49.7873 29.9923C49.7018 29.9923 49.627 30.0242 49.5735 30.0882C49.5307 30.1415 49.504 30.2107 49.504 30.28C49.504 30.4452 49.6269 30.5678 49.7873 30.5678C49.8729 30.5678 49.9477 30.5358 50.0012 30.4719C50.0439 30.4186 50.0707 30.3493 50.0707 30.28C50.0707 30.1148 49.9477 29.9923 49.7873 29.9923ZM45.1257 25.1481C45.0401 25.1481 44.9653 25.18 44.9118 25.244C44.8691 25.2973 44.8423 25.3666 44.8423 25.4358C44.8423 25.6011 44.9653 25.7236 45.1257 25.7236C45.2112 25.7236 45.286 25.6916 45.3395 25.6277C45.3823 25.5744 45.409 25.5051 45.409 25.4358C45.4037 25.2706 45.286 25.1481 45.1257 25.1481ZM38.8121 25.4252C38.8976 25.4252 38.9725 25.3932 39.0259 25.3293C39.0687 25.276 39.0954 25.2067 39.0954 25.1374C39.0954 24.9722 38.9725 24.8496 38.8121 24.8496C38.6517 24.8496 38.5288 24.9722 38.5288 25.1374C38.5288 25.2067 38.5555 25.276 38.5983 25.3293C38.6517 25.3932 38.7266 25.4252 38.8121 25.4252ZM42.2121 21.4816C42.2121 21.4124 42.1854 21.3431 42.1426 21.2898C42.0357 21.1672 41.8219 21.1672 41.715 21.2898C41.6722 21.3431 41.6455 21.4124 41.6455 21.4816C41.6455 21.6468 41.7684 21.7694 41.9288 21.7694C42.0892 21.7694 42.2121 21.6468 42.2121 21.4816ZM37.7376 20.0215C37.652 20.0215 37.5772 20.0534 37.5237 20.1174C37.481 20.1707 37.4542 20.2399 37.4542 20.3092C37.4542 20.4744 37.5772 20.597 37.7376 20.597C37.8231 20.597 37.8979 20.565 37.9514 20.5011C37.9942 20.4478 38.0209 20.3785 38.0209 20.3092C38.0209 20.144 37.8979 20.0215 37.7376 20.0215ZM40.5709 15.9607C40.5709 16.0299 40.5976 16.0992 40.6404 16.1525C40.6939 16.2111 40.7687 16.2484 40.8543 16.2484C40.9398 16.2484 41.0146 16.2165 41.0681 16.1525C41.1109 16.0992 41.1376 16.0353 41.1376 15.9607C41.1376 15.7955 41.0146 15.6729 40.8543 15.6729C40.6885 15.6782 40.5709 15.8008 40.5709 15.9607ZM38.3149 13.9249C38.3951 13.9409 38.4807 13.9249 38.5448 13.877C38.5983 13.8343 38.641 13.7757 38.6517 13.7064C38.6891 13.5466 38.5929 13.4027 38.4379 13.3654C38.3577 13.3494 38.2722 13.3654 38.208 13.4133C38.1546 13.456 38.1118 13.5146 38.1011 13.5839C38.0637 13.7437 38.1546 13.8876 38.3149 13.9249ZM45.3769 12.4328C45.3769 12.598 45.4999 12.7205 45.6603 12.7205C45.8206 12.7205 45.9436 12.598 45.9436 12.4328C45.9436 12.3635 45.9169 12.2942 45.8741 12.2409C45.7672 12.1184 45.5533 12.1184 45.4464 12.2409C45.3983 12.2942 45.3769 12.3635 45.3769 12.4328ZM43.5433 8.60646C43.5005 8.65975 43.4738 8.72903 43.4738 8.79831C43.4738 8.96351 43.5967 9.08608 43.7571 9.08608C43.8426 9.08608 43.9175 9.0541 43.9709 8.99016C44.0137 8.93686 44.0404 8.86759 44.0404 8.79831C44.0404 8.6331 43.9175 8.51053 43.7571 8.51053C43.6716 8.51053 43.5967 8.54251 43.5433 8.60646ZM42.7467 6.35224C42.8323 6.35224 42.9071 6.32026 42.9606 6.25631C43.0033 6.20302 43.0301 6.13374 43.0301 6.06446C43.0301 5.89926 42.9071 5.77669 42.7467 5.77669C42.6612 5.77669 42.5863 5.80866 42.5329 5.87261C42.4901 5.92591 42.4634 5.99518 42.4634 6.06446C42.4634 6.22967 42.5863 6.35224 42.7467 6.35224ZM49.5735 8.31868C49.5307 8.37198 49.504 8.44125 49.504 8.51053C49.504 8.67574 49.6269 8.79831 49.7873 8.79831C49.8729 8.79831 49.9477 8.76633 50.0012 8.70238C50.0439 8.64909 50.0707 8.57981 50.0707 8.51053C50.0707 8.34533 49.9477 8.22276 49.7873 8.22276C49.7018 8.22276 49.627 8.25473 49.5735 8.31868ZM56.7103 7.08766C56.7103 7.01838 56.6836 6.9491 56.6408 6.89581C56.5339 6.77324 56.3201 6.77324 56.2132 6.89581C56.1704 6.9491 56.1437 7.01838 56.1437 7.08766C56.1437 7.25286 56.2666 7.37543 56.427 7.37543C56.5874 7.37543 56.7103 7.25286 56.7103 7.08766ZM54.2619 11.0632C54.3047 11.0099 54.3314 10.9406 54.3314 10.8713C54.3314 10.7061 54.2084 10.5836 54.048 10.5836C53.9625 10.5836 53.8877 10.6155 53.8342 10.6795C53.7914 10.7328 53.7647 10.8021 53.7647 10.8713C53.7647 11.0365 53.8877 11.1591 54.048 11.1591C54.1336 11.1591 54.2084 11.1271 54.2619 11.0632ZM55.6251 15.4224C55.4647 15.4224 55.3418 15.545 55.3418 15.7102C55.3418 15.8754 55.4647 15.998 55.6251 15.998C55.7106 15.998 55.7855 15.966 55.8389 15.902C55.8817 15.8487 55.9084 15.7795 55.9084 15.7102C55.9084 15.545 55.7855 15.4224 55.6251 15.4224ZM54.2405 19.9415C54.1977 19.9948 54.171 20.0641 54.171 20.1334C54.171 20.2986 54.294 20.4211 54.4543 20.4211C54.6147 20.4211 54.7377 20.2986 54.7377 20.1334C54.7377 20.0641 54.7109 19.9948 54.6682 19.9415C54.5613 19.8189 54.3421 19.8189 54.2405 19.9415ZM46.3606 19.9255C46.4033 19.8722 46.4301 19.803 46.4301 19.7337C46.4301 19.5685 46.3071 19.4459 46.1467 19.4459C46.0612 19.4459 45.9864 19.4779 45.9329 19.5418C45.8901 19.5951 45.8634 19.6644 45.8634 19.7337C45.8634 19.8989 45.9864 20.0215 46.1467 20.0215C46.2323 20.0215 46.3071 19.9895 46.3606 19.9255ZM44.8263 15.4757C44.9118 15.4757 44.9867 15.4437 45.0401 15.3798C45.0829 15.3265 45.1096 15.2572 45.1096 15.1879C45.1096 15.0227 44.9867 14.9002 44.8263 14.9002C44.7408 14.9002 44.6659 14.9321 44.6125 14.9961C44.5697 15.0494 44.543 15.1187 44.543 15.1879C44.543 15.3531 44.6659 15.4757 44.8263 15.4757ZM49.9531 13.893C49.8675 13.893 49.7927 13.9249 49.7392 13.9889C49.6964 14.0422 49.6697 14.1114 49.6697 14.1807C49.6697 14.3459 49.7927 14.4685 49.9531 14.4685C50.0386 14.4685 50.1134 14.4365 50.1669 14.3726C50.2097 14.3193 50.2364 14.25 50.2364 14.1807C50.2364 14.0155 50.1134 13.893 49.9531 13.893ZM59.1534 16.9945C59.1962 16.9412 59.2229 16.8719 59.2229 16.8027C59.2229 16.6375 59.1 16.5149 58.9396 16.5149C58.8541 16.5149 58.7792 16.5469 58.7257 16.6108C58.683 16.6641 58.6563 16.7281 58.6563 16.8027C58.6563 16.9679 58.7792 17.0904 58.9396 17.0904C59.0251 17.0904 59.1053 17.0585 59.1534 16.9945ZM60.4953 25.7236C60.4097 25.7236 60.3349 25.7556 60.2814 25.8195C60.2387 25.8728 60.2119 25.9421 60.2119 26.0114C60.2119 26.1766 60.3349 26.2992 60.4953 26.2992C60.6556 26.2992 60.7786 26.1766 60.7786 26.0114C60.7786 25.8462 60.6556 25.7236 60.4953 25.7236ZM47.0074 23.7785C46.8471 23.7785 46.7241 23.9011 46.7241 24.0663C46.7241 24.1355 46.7508 24.2048 46.7936 24.2581C46.8471 24.3167 46.9219 24.354 47.0074 24.354C47.093 24.354 47.1678 24.3221 47.2213 24.2581C47.264 24.2048 47.2908 24.1355 47.2908 24.0663C47.2908 23.9064 47.1678 23.7785 47.0074 23.7785ZM55.3952 13.8237C55.2348 13.8237 55.1119 13.9462 55.1119 14.1114C55.1119 14.1807 55.1386 14.25 55.1814 14.3033C55.2348 14.3619 55.3097 14.3992 55.3952 14.3992C55.4808 14.3992 55.5556 14.3672 55.6091 14.3033C55.6518 14.25 55.6786 14.1807 55.6786 14.1114C55.6786 13.9462 55.5556 13.8237 55.3952 13.8237ZM58.7792 9.36852C58.822 9.31523 58.8487 9.24595 58.8487 9.17667C58.8487 9.01147 58.7258 8.8889 58.5654 8.8889C58.405 8.8889 58.282 9.01147 58.282 9.17667C58.282 9.34188 58.405 9.46445 58.5654 9.46445C58.6509 9.46445 58.7257 9.42714 58.7792 9.36852ZM61.6874 7.95097C61.8478 7.95097 61.9707 7.8284 61.9707 7.6632C61.9707 7.498 61.8478 7.37543 61.6874 7.37543C61.6019 7.37543 61.527 7.4074 61.4736 7.47135C61.4308 7.52464 61.4041 7.59392 61.4041 7.6632C61.4041 7.8284 61.5217 7.95097 61.6874 7.95097ZM66.2849 15.2306C66.3384 15.2892 66.4132 15.3265 66.4988 15.3265C66.5843 15.3265 66.6591 15.2945 66.7126 15.2306C66.7554 15.1773 66.7821 15.1133 66.7821 15.0387C66.7821 14.8735 66.6591 14.7509 66.4988 14.7509C66.3384 14.7509 66.2154 14.8735 66.2154 15.0387C66.2154 15.1133 66.2421 15.1773 66.2849 15.2306ZM64.7292 23.6293C64.6437 23.6293 64.5689 23.6612 64.5154 23.7252C64.4726 23.7785 64.4459 23.8478 64.4459 23.917C64.4459 24.0823 64.5689 24.2048 64.7292 24.2048C64.8148 24.2048 64.8896 24.1728 64.9431 24.1089C64.9859 24.0556 65.0126 23.9863 65.0126 23.917C65.0126 23.7518 64.8896 23.6293 64.7292 23.6293ZM47.7879 30.6318C47.7024 30.6318 47.6276 30.6637 47.5741 30.7277C47.5313 30.781 47.5046 30.8502 47.5046 30.9195C47.5046 31.0847 47.6276 31.2073 47.7879 31.2073C47.8735 31.2073 47.9483 31.1753 48.0018 31.1114C48.0446 31.0581 48.0713 30.9888 48.0713 30.9195C48.0659 30.7543 47.9483 30.6318 47.7879 30.6318ZM55.2242 31.1753C55.1814 31.2286 55.1547 31.2979 55.1547 31.3672C55.1547 31.5324 55.2776 31.6549 55.438 31.6549C55.5984 31.6549 55.7213 31.5324 55.7213 31.3672C55.7213 31.2979 55.6946 31.2286 55.6518 31.1753C55.5449 31.0528 55.3311 31.0528 55.2242 31.1753ZM53.9251 21.034C53.8396 21.034 53.7647 21.066 53.7113 21.1299C53.6685 21.1832 53.6418 21.2525 53.6418 21.3218C53.6418 21.487 53.7647 21.6095 53.9251 21.6095C54.0106 21.6095 54.0855 21.5776 54.1389 21.5136C54.1817 21.4603 54.2084 21.391 54.2084 21.3218C54.2031 21.1566 54.0855 21.034 53.9251 21.034ZM56.0528 16.8027C55.8924 16.8027 55.7694 16.9252 55.7694 17.0904C55.7694 17.2556 55.8924 17.3782 56.0528 17.3782C56.1383 17.3782 56.2132 17.3462 56.2666 17.2823C56.3094 17.229 56.3361 17.1597 56.3361 17.0904C56.3308 16.9252 56.2132 16.8027 56.0528 16.8027ZM55.0638 9.35254C55.0638 9.19266 54.9408 9.07009 54.7751 9.07009C54.6094 9.07009 54.4864 9.19266 54.4864 9.35254V9.39517C54.4864 9.55504 54.6094 9.67761 54.7751 9.67761C54.9408 9.67761 55.0638 9.55504 55.0638 9.39517V9.35254ZM51.6049 7.7538C51.5194 7.7538 51.4446 7.78577 51.3911 7.84972C51.3483 7.90301 51.3216 7.96696 51.3216 8.04157C51.3216 8.20677 51.4446 8.32934 51.6049 8.32934C51.6905 8.32934 51.7653 8.29737 51.8188 8.23342C51.8616 8.18013 51.8883 8.11085 51.8883 8.04157C51.8883 7.87637 51.7653 7.7538 51.6049 7.7538ZM55.4487 6.39487C55.5342 6.39487 55.6091 6.36289 55.6625 6.29894C55.7053 6.24565 55.732 6.17637 55.732 6.1071C55.732 5.94189 55.6091 5.81932 55.4487 5.81932C55.3632 5.81932 55.2883 5.8513 55.2348 5.91525C55.1921 5.96854 55.1654 6.03782 55.1654 6.1071C55.1654 6.2723 55.283 6.39487 55.4487 6.39487ZM42.7948 10.445C42.8376 10.3917 42.8643 10.3224 42.8643 10.2532C42.8643 10.088 42.7414 9.96539 42.581 9.96539C42.4955 9.96539 42.4206 9.99736 42.3672 10.0613C42.3244 10.1146 42.2977 10.1786 42.2977 10.2532C42.2977 10.4184 42.4206 10.5409 42.581 10.5409C42.6665 10.5409 42.7414 10.509 42.7948 10.445ZM44.0939 11.6494C44.1367 11.5961 44.1634 11.5268 44.1634 11.4575C44.1634 11.2923 44.0404 11.1698 43.8801 11.1698C43.7945 11.1698 43.7197 11.2017 43.6662 11.2657C43.6235 11.319 43.5967 11.3883 43.5967 11.4575C43.5967 11.6227 43.7197 11.7453 43.8801 11.7453C43.9656 11.7453 44.0404 11.7133 44.0939 11.6494ZM63.4409 20.1547C63.7991 20.3572 64.1733 20.2559 64.355 20.144L64.494 20.0588L64.3925 19.9309C63.9969 19.4299 63.4248 19.5312 63.1736 19.6537L63.0132 19.7337L63.1201 19.8722C63.2217 20.0001 63.3286 20.0907 63.4409 20.1547Z" fill="#E40045"/>
</g>
<mask id="mask1" mask-type="alpha" maskUnits="userSpaceOnUse" x="32" y="0" width="40" height="39">
<path d="M71.2664 0H32.7275V38.4177H71.2664V0Z" fill="url(#paint1_linear)"/>
</mask>
<g mask="url(#mask1)">
<path d="M65.1507 32.3212C61.7827 35.6785 57.1371 37.7516 51.9997 37.7516C46.8622 37.7516 42.2166 35.6785 38.8486 32.3212C35.4807 28.9638 33.4011 24.3328 33.4011 19.2115C33.4011 14.0902 35.4807 9.45921 38.8486 6.10185C42.2166 2.7445 46.8622 0.67147 51.9997 0.67147C57.1371 0.67147 61.7827 2.7445 65.1507 6.10185C68.5186 9.45921 70.5982 14.0902 70.5982 19.2115C70.5982 24.3275 68.5186 28.9638 65.1507 32.3212ZM51.9997 38.4177C57.3189 38.4177 62.1409 36.2647 65.6265 32.7901C69.112 29.3155 71.2718 24.5087 71.2718 19.2062C71.2718 13.9037 69.112 9.09683 65.6265 5.62223C62.1409 2.15297 57.3242 0 51.9997 0C46.6805 0 41.8584 2.15297 38.3729 5.62756C34.8873 9.10215 32.7275 13.909 32.7275 19.2115C32.7275 24.514 34.8873 29.3209 38.3729 32.7955C41.8638 36.2701 46.6805 38.4177 51.9997 38.4177Z" fill="#E40045"/>
</g>
<mask id="mask2" mask-type="alpha" maskUnits="userSpaceOnUse" x="32" y="0" width="40" height="39">
<path d="M71.2664 0H32.7275V38.4177H71.2664V0Z" fill="url(#paint2_linear)"/>
</mask>
<g mask="url(#mask2)">
<path d="M65.1507 6.10185C61.7827 2.7445 57.1371 0.67147 51.9997 0.67147C46.8622 0.67147 42.2166 2.7445 38.8486 6.10185C35.4807 9.45921 33.4011 14.0902 33.4011 19.2115C33.4011 24.3328 35.4807 28.9638 38.8486 32.3212C42.2166 35.6785 46.8622 37.7516 51.9997 37.7516C57.1371 37.7516 61.7827 35.6785 65.1507 32.3212C68.5186 28.9638 70.5982 24.3328 70.5982 19.2115C70.5982 14.0902 68.5186 9.45388 65.1507 6.10185ZM51.9997 0C57.3189 0 62.1409 2.15297 65.6265 5.62756C69.112 9.10215 71.2718 13.909 71.2718 19.2115C71.2718 24.514 69.112 29.3209 65.6265 32.7955C62.1409 36.2701 57.3189 38.423 51.9997 38.423C46.6805 38.423 41.8584 36.2701 38.3729 32.7955C34.8873 29.3155 32.7275 24.514 32.7275 19.2115C32.7275 13.909 34.8873 9.10215 38.3729 5.62756C41.8638 2.15297 46.6805 0 51.9997 0Z" fill="#E40045"/>
</g>
</g>
<defs>
<linearGradient id="paint0_linear" x1="51.9891" y1="32.0811" x2="51.9891" y2="25.3931" gradientUnits="userSpaceOnUse">
<stop stop-color="white"/>
<stop offset="1"/>
</linearGradient>
<linearGradient id="paint1_linear" x1="52.0005" y1="0" x2="52.0005" y2="19.2062" gradientUnits="userSpaceOnUse">
<stop stop-color="white"/>
<stop offset="0.0977" stop-color="#D2D2D2"/>
<stop offset="0.2316" stop-color="#9B9B9B"/>
<stop offset="0.3668" stop-color="#6C6C6C"/>
<stop offset="0.5001" stop-color="#454545"/>
<stop offset="0.6313" stop-color="#272727"/>
<stop offset="0.7597" stop-color="#111111"/>
<stop offset="0.8841" stop-color="#040404"/>
<stop offset="1"/>
</linearGradient>
<linearGradient id="paint2_linear" x1="52.0005" y1="38.4196" x2="52.0005" y2="19.208" gradientUnits="userSpaceOnUse">
<stop stop-color="white"/>
<stop offset="0.0977" stop-color="#D2D2D2"/>
<stop offset="0.2316" stop-color="#9B9B9B"/>
<stop offset="0.3668" stop-color="#6C6C6C"/>
<stop offset="0.5001" stop-color="#454545"/>
<stop offset="0.6313" stop-color="#272727"/>
<stop offset="0.7597" stop-color="#111111"/>
<stop offset="0.8841" stop-color="#040404"/>
<stop offset="1"/>
</linearGradient>
<clipPath id="clip0">
<rect width="104" height="71" fill="white"/>
</clipPath>
</defs>
</svg>
