<svg width="49" height="49" viewBox="0 0 49 49" fill="none" xmlns="http://www.w3.org/2000/svg">
<circle cx="24.5" cy="24.5" r="24.5" fill="#FFA9B8"/>
<path d="M33.5417 39C31.6383 38.8872 30.0708 38.3235 28.5033 37.5342C25.9281 36.1811 23.6888 34.4897 21.5615 32.5729C18.6504 29.9795 15.9633 27.0478 13.612 23.8906C12.2684 21.861 11.1488 19.9442 10.477 17.689C10.2531 17.0125 10.1411 16.2232 10.0291 15.5467C9.91716 14.9829 10.1411 14.5319 10.477 14.0808C11.5966 12.615 12.9402 11.3747 14.5077 10.3599C14.8436 10.1344 15.2915 10.0216 15.7393 10.0216C16.4111 9.90885 16.859 10.2471 17.1949 10.8109C18.4265 12.7278 19.6581 14.6446 21.0017 16.5615C21.4495 17.238 21.3376 17.8018 21.1136 18.4783C20.6658 19.3804 20.106 20.2824 19.6581 21.1845C19.5461 21.41 19.5461 21.6355 19.6581 21.861C20.7777 23.4396 22.2333 24.9054 23.5769 26.2585C24.8085 27.3861 26.0401 28.4009 27.2717 29.5285C27.4956 29.754 27.7196 29.754 27.9435 29.5285C28.6153 29.0774 29.399 28.7392 30.0708 28.2881C30.4067 28.0626 30.7426 27.9499 31.0785 27.8371C31.5264 27.7244 32.0862 27.8371 32.534 28.0626C34.4374 29.3029 36.3408 30.5433 38.2442 31.8963C38.916 32.3474 39.14 33.1367 38.916 34.0387C38.8041 34.2642 38.8041 34.4897 38.5801 34.7153C37.5724 36.1811 36.3408 37.5342 34.8853 38.6617C34.4374 38.7745 33.9896 39 33.5417 39ZM33.6537 37.6469C33.7656 37.5342 34.1015 37.4214 34.3255 37.1959C34.8853 36.6321 35.4451 36.1811 36.0049 35.5045C36.4528 35.0535 36.9007 34.4897 37.3485 33.926C37.7964 33.3622 37.6844 33.0239 37.1246 32.6856C35.4451 31.5581 33.7656 30.5433 32.1981 29.4157C31.6383 28.9647 31.1905 29.0774 30.6306 29.4157C29.7349 29.9795 28.7272 30.4305 27.8315 30.9943C27.6076 31.107 27.4956 31.107 27.2717 30.9943C27.0478 30.7688 26.7119 30.656 26.376 30.4305C24.1367 28.6264 22.0094 26.7096 20.106 24.4544C19.3222 23.5524 18.6504 22.6503 17.9786 21.7483C17.8667 21.5228 17.8667 21.41 17.9786 21.1845C18.4265 20.5079 18.7624 19.8314 19.0983 19.1549C19.3222 18.8166 19.5461 18.4783 19.6581 18.0273C19.882 17.5763 19.882 17.238 19.5461 16.787C18.4265 15.0956 17.3068 13.2915 16.1872 11.6002C15.8513 11.1492 15.5154 11.0364 15.0675 11.3747C13.8359 12.2767 12.6043 13.2915 11.5966 14.5319C11.3727 14.8701 11.2607 15.2084 11.2607 15.6594C11.4847 16.1104 11.4847 16.5615 11.5966 16.8997C12.1565 18.8166 13.0522 20.6207 14.1718 22.3121C16.2992 25.582 18.9863 28.2881 21.7854 30.9943C24.0247 33.0239 26.376 34.9408 29.0631 36.2938C30.5187 36.9704 31.8622 37.5342 33.6537 37.6469Z" fill="white"/>
</svg>
