<svg width="49" height="49" viewBox="0 0 49 49" fill="none" xmlns="http://www.w3.org/2000/svg">
<circle cx="24.5" cy="24.5" r="24.5" fill="#FFA9B8"/>
<g clip-path="url(#clip0)">
<path d="M25.8834 41.9999C23.9954 41.4926 22.1068 40.9872 20.2195 40.4779C19.5465 40.2966 18.8761 40.1074 18.2051 39.9188C17.6785 39.7707 17.175 39.8291 16.6922 40.0815C16.4961 40.1844 16.3099 40.3086 16.1064 40.3936C15.7493 40.5436 15.4946 40.7183 15.5271 41.1838C15.5491 41.4952 15.299 41.6872 14.9785 41.6812C13.5161 41.6526 12.0531 41.6188 10.5908 41.5696C10.1738 41.5557 9.98759 41.3233 9.99956 40.887C10.0701 38.2765 10.1459 35.6654 10.219 33.055C10.2343 32.5131 10.2436 31.9706 10.2609 31.4287C10.2762 30.9406 10.475 30.75 10.9652 30.7613C12.3278 30.7925 13.691 30.8251 15.0537 30.8623C15.6628 30.8789 15.8324 31.0728 15.8091 31.6864C15.8011 31.8942 15.8078 32.1027 15.8078 32.3152C16.2853 32.1472 16.7534 31.9507 17.2389 31.8179C18.9859 31.3377 20.7023 31.4613 22.3103 32.292C23.345 32.8266 24.4017 33.0942 25.5575 33.0882C26.5763 33.0829 27.5958 33.1447 28.6152 33.1619C29.9732 33.1845 31.0213 33.7516 31.7481 34.9011C31.7714 34.9376 31.7993 34.9715 31.8399 35.0279C32.1405 34.8885 32.4391 34.751 32.7363 34.6109C33.9274 34.0498 35.1124 33.4754 36.3101 32.9288C37.569 32.3544 39.0466 32.7821 39.8081 33.9156C40.1126 34.3685 40.0608 34.6488 39.6079 34.9409C36.3813 37.0254 33.1573 39.1146 29.9233 41.1871C29.2231 41.636 28.4144 41.806 27.6004 41.9329C27.4927 41.9495 27.387 41.9774 27.2799 41.9999C26.8144 41.9999 26.3489 41.9999 25.8834 41.9999ZM15.6415 39.3729C15.8078 39.2859 15.9541 39.2129 16.0971 39.1345C16.8838 38.7015 17.7071 38.6172 18.5696 38.8622C19.6762 39.1763 20.7827 39.4904 21.8926 39.7913C23.2054 40.1465 24.5075 40.5656 25.8408 40.8126C27.095 41.045 28.3599 40.8538 29.4578 40.1565C32.4198 38.2759 35.3571 36.3561 38.3038 34.4509C38.4016 34.3878 38.4953 34.3181 38.5957 34.249C38.0764 33.749 37.3748 33.6553 36.6692 33.9867C35.2873 34.6361 33.9121 35.2982 32.5255 35.937C32.2735 36.0533 32.187 36.1655 32.2369 36.4524C32.3347 37.0161 32.1611 37.3887 31.4243 37.3615C29.4532 37.2877 27.4807 37.2499 25.509 37.1961C25.3208 37.1908 25.1299 37.1895 24.9457 37.1563C24.6544 37.1045 24.5108 36.9019 24.4995 36.6177C24.4888 36.3428 24.7036 36.113 24.9869 36.0805C25.096 36.0679 25.2084 36.0752 25.3188 36.0778C27.1023 36.125 28.8859 36.1734 30.6695 36.2206C30.7971 36.2239 30.9255 36.2213 31.0585 36.2213C30.8849 35.1873 29.9439 34.3539 28.8992 34.2968C28.2907 34.2636 27.6809 34.2523 27.0718 34.2344C26.2298 34.2091 25.3879 34.1932 24.546 34.1613C23.5452 34.1235 22.676 33.6885 21.7889 33.2748C19.8371 32.365 17.9066 32.47 16.0252 33.5218C15.8304 33.6307 15.7466 33.7583 15.7426 33.988C15.7187 35.2159 15.6728 36.4437 15.6442 37.6716C15.6309 38.2208 15.6415 38.7719 15.6415 39.3729ZM11.3695 31.948C11.2917 34.7524 11.2125 37.6032 11.1321 40.5031C12.2606 40.5031 13.3399 40.5031 14.4458 40.5031C14.5236 37.6749 14.6014 34.8393 14.6812 31.948C13.5753 31.948 12.504 31.948 11.3695 31.948Z" fill="white"/>
<path d="M25.5509 8C25.8262 8.1793 25.9113 8.43297 25.9093 8.7577C25.8987 10.3926 25.9047 12.0282 25.9033 13.6638C25.9033 13.774 25.908 13.8882 25.8807 13.9932C25.8116 14.2614 25.6214 14.4055 25.3494 14.4049C25.0774 14.4042 24.8852 14.2628 24.82 13.9918C24.7921 13.8756 24.7968 13.7501 24.7968 13.6293C24.7954 12.0163 24.8027 10.4026 24.7901 8.78957C24.7874 8.45422 24.8633 8.1866 25.1512 8C25.2849 8 25.4179 8 25.5509 8Z" fill="white"/>
<path d="M25.3476 31.5908C20.874 31.5895 17.2451 27.969 17.2471 23.5092C17.2491 19.0533 20.8867 15.4282 25.3549 15.4302C29.8284 15.4322 33.4561 19.0526 33.4547 23.5145C33.4534 27.975 29.8224 31.5915 25.3476 31.5908ZM25.331 30.4825C29.1561 30.5031 32.3083 27.3933 32.3335 23.5729C32.3588 19.7034 29.2652 16.5724 25.3888 16.5451C21.5444 16.5186 18.3882 19.6304 18.3683 23.4667C18.349 27.3282 21.4579 30.4612 25.331 30.4825Z" fill="white"/>
<path d="M28.9856 12.5901C28.9856 12.2029 28.9803 11.8158 28.9869 11.4286C28.9943 11.0269 29.2144 10.7851 29.5495 10.7911C29.8747 10.7971 30.0875 11.0309 30.0909 11.4153C30.0975 12.2116 30.0982 13.0084 30.0902 13.8046C30.0862 14.1785 29.8541 14.4149 29.5296 14.4089C29.2164 14.403 28.9982 14.1758 28.9889 13.8179C28.9783 13.4089 28.9863 12.9998 28.9863 12.5901C28.9863 12.5901 28.9863 12.5901 28.9856 12.5901Z" fill="white"/>
<path d="M20.6082 12.582C20.6082 12.1836 20.6009 11.7851 20.6102 11.3874C20.6188 11.0268 20.8316 10.8003 21.1455 10.791C21.4714 10.7817 21.7075 11.0168 21.7115 11.39C21.7201 12.1975 21.7194 13.005 21.7115 13.8125C21.7075 14.1704 21.488 14.4002 21.1761 14.4088C20.8509 14.4181 20.6195 14.1824 20.6109 13.8099C20.6009 13.4008 20.6082 12.9911 20.6082 12.582Z" fill="white"/>
<path d="M26.6147 25.2995C26.6187 24.577 26.0913 24.0571 25.288 24.0206C24.597 23.9893 24.0178 23.7304 23.5636 23.2164C22.4836 21.9945 22.9199 20.0813 24.4281 19.4584C24.6675 19.3595 24.76 19.2466 24.7267 19.0016C24.7134 18.9046 24.7247 18.8017 24.742 18.7047C24.7959 18.4119 24.9927 18.2684 25.276 18.2512C25.548 18.2352 25.8373 18.455 25.8113 18.7273C25.7675 19.1875 25.9803 19.3429 26.3746 19.5142C27.2132 19.8788 27.6415 20.5874 27.7312 21.4918C27.7711 21.8909 27.545 22.1818 27.2039 22.201C26.8814 22.2196 26.6513 21.9772 26.6147 21.5795C26.5522 20.9021 26.0734 20.4227 25.415 20.3795C24.7959 20.3383 24.2146 20.7965 24.1003 21.4168C23.9879 22.0237 24.3423 22.64 24.9362 22.8319C25.1224 22.8923 25.3265 22.9063 25.5241 22.9222C26.6685 23.0158 27.5238 23.8174 27.7113 24.9788C27.8769 26.0041 27.2664 27.0978 26.2562 27.4763C25.9171 27.6038 25.7854 27.7513 25.826 28.1052C25.8586 28.3901 25.7083 28.6345 25.4223 28.6617C25.2341 28.6796 24.9847 28.5906 24.8497 28.4598C24.74 28.3536 24.7247 28.1125 24.7327 27.9339C24.744 27.6862 24.6635 27.5726 24.4294 27.4737C23.5463 27.0985 23.0728 26.4045 22.9697 25.4596C22.9252 25.0532 23.138 24.765 23.4771 24.7364C23.8136 24.7079 24.0471 24.9502 24.0863 25.3693C24.1535 26.0931 24.7054 26.5732 25.4349 26.5433C26.0847 26.5181 26.6114 25.9629 26.6147 25.2995Z" fill="white"/>
</g>
<defs>
<clipPath id="clip0">
<rect width="30" height="34" fill="white" transform="translate(10 8)"/>
</clipPath>
</defs>
</svg>
