<svg width="49" height="49" viewBox="0 0 49 49" fill="none" xmlns="http://www.w3.org/2000/svg">
<circle cx="24.5" cy="24.5" r="24.5" fill="#FFA9B8"/>
<path d="M35.0611 20.9426C34.161 23.6924 32.6952 26.1902 31.5617 28.8361C31.456 29.0823 31.3302 29.3209 31.2255 29.5671C30.8951 30.3432 30.3081 30.7001 29.4696 30.6982C26.9769 30.6905 24.4851 30.6953 21.9924 30.6953C21.8839 30.6953 21.7763 30.6953 21.6457 30.6953C21.7043 31.2339 21.979 31.6321 22.3171 31.9985C22.7657 32.4852 23.3257 32.692 23.9827 32.69C26.4754 32.6843 28.9672 32.6872 31.4599 32.6881C32.0045 32.6881 32.3407 32.9045 32.505 33.3479C32.7048 33.8846 32.3791 34.4925 31.8201 34.6194C31.7231 34.6415 31.6213 34.6569 31.5214 34.6569C28.9115 34.6569 26.3016 34.6656 23.6917 34.6492C22.4756 34.6415 21.5073 34.0818 20.7177 33.1825C20.2211 32.617 19.9157 31.961 19.7053 31.2377C18.2423 26.2075 16.7621 21.1811 15.2847 16.1547C15.2117 15.9066 15.1214 15.6613 15.0215 15.4228C14.8592 15.0342 14.5547 14.838 14.1368 14.8342C12.9544 14.8217 11.7709 14.814 10.5885 14.8082C10.2494 14.8063 9.94487 14.7418 9.70281 14.4754C9.20811 13.931 9.46266 13.0654 10.1773 12.8759C10.2158 12.8654 10.2513 12.8423 10.2888 12.8259C11.6316 12.8259 12.9745 12.8259 14.3165 12.8259C14.6238 12.9038 14.9408 12.9548 15.2357 13.0635C16.1963 13.4184 16.7285 14.1744 17.0243 15.1073C17.3817 16.2336 17.7015 17.3714 18.0387 18.5035C18.0733 18.6208 18.1165 18.7352 18.1463 18.8257C18.4556 18.8103 18.7313 18.7843 19.007 18.7843C23.6033 18.7814 28.2006 18.7824 32.797 18.7824C32.9392 18.7824 33.0823 18.7814 33.2245 18.7901C34.1994 18.8487 34.8766 19.347 35.0198 20.2963C35.0246 20.328 35.0457 20.3578 35.0601 20.3876C35.0611 20.5733 35.0611 20.7579 35.0611 20.9426ZM28.4254 22.5776C28.4571 22.5921 28.4715 22.6036 28.4869 22.6036C29.6857 22.6065 30.8845 22.6113 32.0842 22.6027C32.1553 22.6027 32.2552 22.5132 32.2908 22.4401C32.4819 22.0583 32.6587 21.6687 32.8354 21.2802C32.8969 21.1455 32.9449 21.0041 33.0074 20.8435C31.4618 20.8435 29.9498 20.8435 28.4264 20.8435C28.4254 21.4293 28.4254 21.9977 28.4254 22.5776ZM23.1566 20.8464C21.7648 20.8464 20.3902 20.8464 18.9839 20.8464C19.1472 21.3754 19.3086 21.8765 19.4527 22.3824C19.5017 22.5555 19.5785 22.618 19.7648 22.6161C20.8205 22.6065 21.8752 22.6113 22.9309 22.6104C23.003 22.6104 23.076 22.6007 23.1557 22.594C23.1566 22.0025 23.1566 21.4283 23.1566 20.8464ZM19.9406 23.9117C20.1193 24.4811 20.2912 25.0283 20.4593 25.5631C21.3748 25.5631 22.2662 25.5631 23.1518 25.5631C23.1518 24.9995 23.1518 24.4589 23.1518 23.9117C22.077 23.9117 21.0242 23.9117 19.9406 23.9117ZM27.1181 20.8454C26.2228 20.8454 25.3496 20.8454 24.4659 20.8454C24.4659 21.4379 24.4659 22.0121 24.4659 22.594C25.3573 22.594 26.2324 22.594 27.1181 22.594C27.1181 22.0083 27.1181 21.4398 27.1181 20.8454ZM27.1181 26.8961C26.2228 26.8961 25.3496 26.8961 24.465 26.8961C24.465 27.4886 24.465 28.0628 24.465 28.6457C25.3564 28.6457 26.2315 28.6457 27.1181 28.6457C27.1181 28.0599 27.1181 27.4915 27.1181 26.8961ZM28.4225 25.5852C29.2073 25.5852 29.9681 25.5862 30.7289 25.5814C30.7769 25.5814 30.8489 25.5439 30.8682 25.5044C31.116 24.985 31.3552 24.4628 31.6068 23.9203C30.5252 23.9203 29.4782 23.9203 28.4225 23.9203C28.4225 24.4772 28.4225 25.012 28.4225 25.5852ZM24.4601 25.5669C25.3621 25.5669 26.2372 25.5669 27.1104 25.5669C27.1104 25.0062 27.1104 24.4647 27.1104 23.9203C26.218 23.9203 25.3448 23.9203 24.4601 23.9203C24.4601 24.4782 24.4601 25.012 24.4601 25.5669ZM20.8734 26.8865C21.0539 27.4588 21.2211 28.0013 21.4007 28.5399C21.418 28.5928 21.5093 28.6543 21.5669 28.6553C22.0923 28.6639 22.6168 28.6601 23.1509 28.6601C23.1509 28.0551 23.1509 27.4752 23.1509 26.8865C22.3949 26.8865 21.6601 26.8865 20.8734 26.8865ZM28.4235 28.6601C28.7309 28.6601 29.0142 28.6697 29.2967 28.6524C29.361 28.6486 29.4436 28.561 29.4782 28.4918C29.677 28.0859 29.8644 27.6733 30.0545 27.2636C30.1083 27.1472 30.1602 27.0289 30.2188 26.8971C29.5964 26.8971 29.0152 26.8971 28.4235 26.8971C28.4235 27.4857 28.4235 28.0542 28.4235 28.6601Z" fill="white"/>
<path d="M23.3207 38.4415C22.3332 38.4473 21.5253 37.648 21.5215 36.6603C21.5167 35.6744 22.3207 34.8636 23.3053 34.8607C24.2947 34.8578 25.0958 35.6533 25.1016 36.6449C25.1083 37.6336 24.3129 38.4357 23.3207 38.4415Z" fill="white"/>
<path d="M29.2679 38.4415C28.2804 38.4454 27.4726 37.6442 27.4668 36.6583C27.462 35.6792 28.2747 34.8626 29.2564 34.8607C30.241 34.8588 31.0507 35.6609 31.0575 36.6468C31.0651 37.6259 30.2544 38.4386 29.2679 38.4415Z" fill="white"/>
</svg>
